ISO-10303-21;
HEADER;
FILE_DESCRIPTION (( 'STEP AP214' ),
    '1' );
FILE_NAME ('cuboid.STEP',
    '2026-05-01T12:26:36',
    ( '' ),
    ( '' ),
    'SwSTEP 2.0',
    'SolidWorks 2024',
    '' );
FILE_SCHEMA (( 'AUTOMOTIVE_DESIGN' ));
ENDSEC;

DATA;
#1 = VECTOR ( 'NONE', #15, 1000.000000000000000 ) ;
#2 = DIRECTION ( 'NONE',  ( 0.000000000000000000, -1.000000000000000000, 0.000000000000000000 ) ) ;
#3 = CARTESIAN_POINT ( 'NONE',  ( -30.00000000000000711, -25.00000000000001066, 0.000000000000000000 ) ) ;
#4 = DIRECTION ( 'NONE',  ( 0.000000000000000000, -1.000000000000000000, 0.000000000000000000 ) ) ;
#5 = COLOUR_RGB ( '',0.7921568627450980005, 0.8196078431372548767, 0.9333333333333333481 ) ;
#6 =( GEOMETRIC_REPRESENTATION_CONTEXT ( 3 ) GLOBAL_UNCERTAINTY_ASSIGNED_CONTEXT ( ( #44 ) ) GLOBAL_UNIT_ASSIGNED_CONTEXT ( ( #93, #20, #154 ) ) REPRESENTATION_CONTEXT ( 'NONE', 'WORKASPACE' ) );
#7 = ORIENTED_EDGE ( 'NONE', *, *, #45, .T. ) ;
#8 = VERTEX_POINT ( 'NONE', #141 ) ;
#9 = DIRECTION ( 'NONE',  ( 1.000000000000000000, 5.782411586589356160E-17, -0.000000000000000000 ) ) ;
#10 = LINE ( 'NONE', #63, #136 ) ;
#11 = CARTESIAN_POINT ( 'NONE',  ( -30.00000000000000711, -25.00000000000001066, 30.00000000000000000 ) ) ;
#12 = ORIENTED_EDGE ( 'NONE', *, *, #146, .F. ) ;
#13 = FACE_OUTER_BOUND ( 'NONE', #186, .T. ) ;
#14 = CARTESIAN_POINT ( 'NONE',  ( -30.00000000000000711, -25.00000000000001066, 30.00000000000000000 ) ) ;
#15 = DIRECTION ( 'NONE',  ( -0.000000000000000000, -0.000000000000000000, -1.000000000000000000 ) ) ;
#16 = CARTESIAN_POINT ( 'NONE',  ( 29.99999999999999289, 24.99999999999999289, 30.00000000000000000 ) ) ;
#17 = VECTOR ( 'NONE', #4, 1000.000000000000000 ) ;
#18 = EDGE_CURVE ( 'NONE', #8, #110, #10, .T. ) ;
#19 = EDGE_LOOP ( 'NONE', ( #179, #73, #150, #92 ) ) ;
#20 =( NAMED_UNIT ( * ) PLANE_ANGLE_UNIT ( ) SI_UNIT ( $, .RADIAN. ) );
#21 = ORIENTED_EDGE ( 'NONE', *, *, #121, .F. ) ;
#22 = CARTESIAN_POINT ( 'NONE',  ( 0.000000000000000000, 0.000000000000000000, 30.00000000000000000 ) ) ;
#23 = ADVANCED_FACE ( 'NONE', ( #131 ), #130, .T. ) ;
#24 = VERTEX_POINT ( 'NONE', #3 ) ;
#25 = CARTESIAN_POINT ( 'NONE',  ( -30.00000000000000711, 24.99999999999998934, 0.000000000000000000 ) ) ;
#26 = VERTEX_POINT ( 'NONE', #174 ) ;
#27 = VECTOR ( 'NONE', #2, 1000.000000000000000 ) ;
#28 = CARTESIAN_POINT ( 'NONE',  ( 30.00000000000000355, -25.00000000000000711, 30.00000000000000000 ) ) ;
#29 = CARTESIAN_POINT ( 'NONE',  ( 30.00000000000000355, -25.00000000000000711, 30.00000000000000000 ) ) ;
#30 = CARTESIAN_POINT ( 'NONE',  ( -30.00000000000000711, 24.99999999999998934, 30.00000000000000000 ) ) ;
#31 = FACE_OUTER_BOUND ( 'NONE', #19, .T. ) ;
#32 = PRODUCT_CONTEXT ( 'NONE', #96, 'mechanical' ) ;
#33 = MECHANICAL_DESIGN_GEOMETRIC_PRESENTATION_REPRESENTATION (  '', ( #155 ), #82 ) ;
#34 = DIRECTION ( 'NONE',  ( -2.081668171172168513E-16, 1.000000000000000000, -0.000000000000000000 ) ) ;
#35 = PRESENTATION_STYLE_ASSIGNMENT (( #112 ) ) ;
#36 = LINE ( 'NONE', #91, #60 ) ;
#37 = ORIENTED_EDGE ( 'NONE', *, *, #59, .F. ) ;
#38 = EDGE_CURVE ( 'NONE', #125, #8, #66, .T. ) ;
#39 = AXIS2_PLACEMENT_3D ( 'NONE', #16, #117, #68 ) ;
#40 = PLANE ( 'NONE',  #135 ) ;
#41 = DIRECTION ( 'NONE',  ( -1.000000000000000000, 0.000000000000000000, -0.000000000000000000 ) ) ;
#42 = LINE ( 'NONE', #84, #123 ) ;
#43 = VECTOR ( 'NONE', #187, 1000.000000000000000 ) ;
#44 = UNCERTAINTY_MEASURE_WITH_UNIT (LENGTH_MEASURE( 1.000000000000000082E-05 ), #93, 'distance_accuracy_value', 'NONE');
#45 = EDGE_CURVE ( 'NONE', #158, #24, #116, .T. ) ;
#46 = PLANE ( 'NONE',  #159 ) ;
#47 = EDGE_LOOP ( 'NONE', ( #54, #149, #21, #89 ) ) ;
#48 = VECTOR ( 'NONE', #83, 1000.000000000000000 ) ;
#49 = EDGE_CURVE ( 'NONE', #170, #24, #95, .T. ) ;
#50 = SHAPE_DEFINITION_REPRESENTATION ( #77, #102 ) ;
#51 = ORIENTED_EDGE ( 'NONE', *, *, #70, .T. ) ;
#52 = SURFACE_SIDE_STYLE ('',( #144 ) ) ;
#53 =( NAMED_UNIT ( * ) SI_UNIT ( $, .STERADIAN. ) SOLID_ANGLE_UNIT ( ) );
#54 = ORIENTED_EDGE ( 'NONE', *, *, #49, .T. ) ;
#55 = DIRECTION ( 'NONE',  ( -5.782411586589356160E-17, 1.000000000000000000, 0.000000000000000000 ) ) ;
#56 = ADVANCED_FACE ( 'NONE', ( #98 ), #40, .F. ) ;
#57 = CARTESIAN_POINT ( 'NONE',  ( 0.000000000000000000, 0.000000000000000000, 0.000000000000000000 ) ) ;
#58 = DIRECTION ( 'NONE',  ( 0.000000000000000000, 0.000000000000000000, -1.000000000000000000 ) ) ;
#59 = EDGE_CURVE ( 'NONE', #158, #125, #162, .T. ) ;
#60 = VECTOR ( 'NONE', #157, 1000.000000000000000 ) ;
#61 = CARTESIAN_POINT ( 'NONE',  ( 29.99999999999999289, 24.99999999999999289, 0.000000000000000000 ) ) ;
#62 = EDGE_LOOP ( 'NONE', ( #113, #12, #182, #64 ) ) ;
#63 = CARTESIAN_POINT ( 'NONE',  ( 29.99999999999999289, 24.99999999999999289, 0.000000000000000000 ) ) ;
#64 = ORIENTED_EDGE ( 'NONE', *, *, #109, .F. ) ;
#65 = CARTESIAN_POINT ( 'NONE',  ( 30.00000000000000355, -25.00000000000000711, 30.00000000000000000 ) ) ;
#66 = LINE ( 'NONE', #28, #1 ) ;
#67 = LINE ( 'NONE', #147, #69 ) ;
#68 = DIRECTION ( 'NONE',  ( 1.000000000000000000, 5.782411586589357392E-17, 0.000000000000000000 ) ) ;
#69 = VECTOR ( 'NONE', #161, 1000.000000000000000 ) ;
#70 = EDGE_CURVE ( 'NONE', #75, #110, #67, .T. ) ;
#71 = DIRECTION ( 'NONE',  ( -1.000000000000000000, 0.000000000000000000, -0.000000000000000000 ) ) ;
#72 = ADVANCED_FACE ( 'NONE', ( #31 ), #46, .F. ) ;
#73 = ORIENTED_EDGE ( 'NONE', *, *, #59, .T. ) ;
#74 = DIRECTION ( 'NONE',  ( 1.000000000000000000, 0.000000000000000000, -0.000000000000000000 ) ) ;
#75 = VERTEX_POINT ( 'NONE', #87 ) ;
#76 = FILL_AREA_STYLE_COLOUR ( '', #5 ) ;
#77 = PRODUCT_DEFINITION_SHAPE ( 'NONE', 'NONE',  #177 ) ;
#78 = PLANE ( 'NONE',  #88 ) ;
#79 = ORIENTED_EDGE ( 'NONE', *, *, #166, .F. ) ;
#80 = CARTESIAN_POINT ( 'NONE',  ( -30.00000000000000711, 24.99999999999998934, 30.00000000000000000 ) ) ;
#81 = DIRECTION ( 'NONE',  ( -0.000000000000000000, -0.000000000000000000, -1.000000000000000000 ) ) ;
#82 =( GEOMETRIC_REPRESENTATION_CONTEXT ( 3 ) GLOBAL_UNCERTAINTY_ASSIGNED_CONTEXT ( ( #132 ) ) GLOBAL_UNIT_ASSIGNED_CONTEXT ( ( #90, #128, #53 ) ) REPRESENTATION_CONTEXT ( 'NONE', 'WORKASPACE' ) );
#83 = DIRECTION ( 'NONE',  ( 1.000000000000000000, 5.782411586589356160E-17, -0.000000000000000000 ) ) ;
#84 = CARTESIAN_POINT ( 'NONE',  ( 29.99999999999999289, 24.99999999999999289, 30.00000000000000000 ) ) ;
#85 = EDGE_CURVE ( 'NONE', #26, #170, #139, .T. ) ;
#86 = ORIENTED_EDGE ( 'NONE', *, *, #18, .T. ) ;
#87 = CARTESIAN_POINT ( 'NONE',  ( 29.99999999999999289, 24.99999999999999289, 30.00000000000000000 ) ) ;
#88 = AXIS2_PLACEMENT_3D ( 'NONE', #65, #55, #114 ) ;
#89 = ORIENTED_EDGE ( 'NONE', *, *, #85, .T. ) ;
#90 =( LENGTH_UNIT ( ) NAMED_UNIT ( * ) SI_UNIT ( .MILLI., .METRE. ) );
#91 = CARTESIAN_POINT ( 'NONE',  ( 29.99999999999999289, 24.99999999999999289, 0.000000000000000000 ) ) ;
#92 = ORIENTED_EDGE ( 'NONE', *, *, #124, .T. ) ;
#93 =( LENGTH_UNIT ( ) NAMED_UNIT ( * ) SI_UNIT ( .MILLI., .METRE. ) );
#94 = VECTOR ( 'NONE', #9, 1000.000000000000000 ) ;
#95 = LINE ( 'NONE', #145, #27 ) ;
#96 = APPLICATION_CONTEXT ( 'automotive_design' ) ;
#97 = CLOSED_SHELL ( 'NONE', ( #160, #171, #56, #134, #72, #23 ) ) ;
#98 = FACE_OUTER_BOUND ( 'NONE', #176, .T. ) ;
#99 = AXIS2_PLACEMENT_3D ( 'NONE', #181, #103, #138 ) ;
#100 = FACE_OUTER_BOUND ( 'NONE', #127, .T. ) ;
#101 = PRODUCT_RELATED_PRODUCT_CATEGORY ( 'part', '', ( #178 ) ) ;
#102 = ADVANCED_BREP_SHAPE_REPRESENTATION ( 'cuboid', ( #140, #99 ), #6 ) ;
#103 = DIRECTION ( 'NONE',  ( 0.000000000000000000, 0.000000000000000000, 1.000000000000000000 ) ) ;
#104 = APPLICATION_CONTEXT ( 'automotive_design' ) ;
#105 = CARTESIAN_POINT ( 'NONE',  ( -30.00000000000000711, 24.99999999999998934, 30.00000000000000000 ) ) ;
#106 = ORIENTED_EDGE ( 'NONE', *, *, #38, .T. ) ;
#107 = VECTOR ( 'NONE', #81, 1000.000000000000000 ) ;
#108 = AXIS2_PLACEMENT_3D ( 'NONE', #57, #58, #41 ) ;
#109 = EDGE_CURVE ( 'NONE', #24, #8, #120, .T. ) ;
#110 = VERTEX_POINT ( 'NONE', #61 ) ;
#111 = PRODUCT_DEFINITION_FORMATION_WITH_SPECIFIED_SOURCE ( 'ANY', '', #178, .NOT_KNOWN. ) ;
#112 = SURFACE_STYLE_USAGE ( .BOTH. , #52 ) ;
#113 = ORIENTED_EDGE ( 'NONE', *, *, #49, .F. ) ;
#114 = DIRECTION ( 'NONE',  ( -1.000000000000000000, -5.782411586589356160E-17, 0.000000000000000000 ) ) ;
#115 = CARTESIAN_POINT ( 'NONE',  ( 29.99999999999999289, 24.99999999999999289, 30.00000000000000000 ) ) ;
#116 = LINE ( 'NONE', #14, #107 ) ;
#117 = DIRECTION ( 'NONE',  ( 5.782411586589357392E-17, -1.000000000000000000, 0.000000000000000000 ) ) ;
#118 = PRESENTATION_LAYER_ASSIGNMENT (  '', '', ( #155 ) ) ;
#119 = APPLICATION_PROTOCOL_DEFINITION ( 'draft international standard', 'automotive_design', 1998, #96 ) ;
#120 = LINE ( 'NONE', #165, #94 ) ;
#121 = EDGE_CURVE ( 'NONE', #26, #158, #133, .T. ) ;
#122 = ORIENTED_EDGE ( 'NONE', *, *, #85, .F. ) ;
#123 = VECTOR ( 'NONE', #175, 1000.000000000000000 ) ;
#124 = EDGE_CURVE ( 'NONE', #75, #26, #42, .T. ) ;
#125 = VERTEX_POINT ( 'NONE', #148 ) ;
#126 = FACE_OUTER_BOUND ( 'NONE', #47, .T. ) ;
#127 = EDGE_LOOP ( 'NONE', ( #143, #122, #184, #51 ) ) ;
#128 =( NAMED_UNIT ( * ) PLANE_ANGLE_UNIT ( ) SI_UNIT ( $, .RADIAN. ) );
#129 = DIRECTION ( 'NONE',  ( -0.000000000000000000, 0.000000000000000000, -1.000000000000000000 ) ) ;
#130 = PLANE ( 'NONE',  #108 ) ;
#131 = FACE_OUTER_BOUND ( 'NONE', #62, .T. ) ;
#132 = UNCERTAINTY_MEASURE_WITH_UNIT (LENGTH_MEASURE( 1.000000000000000082E-05 ), #90, 'distance_accuracy_value', 'NONE');
#133 = LINE ( 'NONE', #30, #17 ) ;
#134 = ADVANCED_FACE ( 'NONE', ( #100 ), #163, .F. ) ;
#135 = AXIS2_PLACEMENT_3D ( 'NONE', #115, #173, #172 ) ;
#136 = VECTOR ( 'NONE', #34, 1000.000000000000000 ) ;
#137 = PRODUCT_DEFINITION_CONTEXT ( 'detailed design', #104, 'design' ) ;
#138 = DIRECTION ( 'NONE',  ( 1.000000000000000000, 0.000000000000000000, 0.000000000000000000 ) ) ;
#139 = LINE ( 'NONE', #105, #183 ) ;
#140 = MANIFOLD_SOLID_BREP ( 'Aufsatz-Linear austragen1', #97 ) ;
#141 = CARTESIAN_POINT ( 'NONE',  ( 30.00000000000000355, -25.00000000000000711, 0.000000000000000000 ) ) ;
#142 = CARTESIAN_POINT ( 'NONE',  ( 29.99999999999999289, 24.99999999999999289, 30.00000000000000000 ) ) ;
#143 = ORIENTED_EDGE ( 'NONE', *, *, #146, .T. ) ;
#144 = SURFACE_STYLE_FILL_AREA ( #168 ) ;
#145 = CARTESIAN_POINT ( 'NONE',  ( -30.00000000000000711, 24.99999999999998934, 0.000000000000000000 ) ) ;
#146 = EDGE_CURVE ( 'NONE', #110, #170, #36, .T. ) ;
#147 = CARTESIAN_POINT ( 'NONE',  ( 29.99999999999999289, 24.99999999999999289, 30.00000000000000000 ) ) ;
#148 = CARTESIAN_POINT ( 'NONE',  ( 30.00000000000000355, -25.00000000000000711, 30.00000000000000000 ) ) ;
#149 = ORIENTED_EDGE ( 'NONE', *, *, #45, .F. ) ;
#150 = ORIENTED_EDGE ( 'NONE', *, *, #166, .T. ) ;
#151 = DIRECTION ( 'NONE',  ( -0.000000000000000000, -0.000000000000000000, -1.000000000000000000 ) ) ;
#152 = APPLICATION_PROTOCOL_DEFINITION ( 'draft international standard', 'automotive_design', 1998, #104 ) ;
#153 = ORIENTED_EDGE ( 'NONE', *, *, #38, .F. ) ;
#154 =( NAMED_UNIT ( * ) SI_UNIT ( $, .STERADIAN. ) SOLID_ANGLE_UNIT ( ) );
#155 = STYLED_ITEM ( 'NONE', ( #35 ), #140 ) ;
#156 = ORIENTED_EDGE ( 'NONE', *, *, #70, .F. ) ;
#157 = DIRECTION ( 'NONE',  ( -1.000000000000000000, -5.782411586589357392E-17, 0.000000000000000000 ) ) ;
#158 = VERTEX_POINT ( 'NONE', #11 ) ;
#159 = AXIS2_PLACEMENT_3D ( 'NONE', #22, #180, #71 ) ;
#160 = ADVANCED_FACE ( 'NONE', ( #126 ), #185, .F. ) ;
#161 = DIRECTION ( 'NONE',  ( -0.000000000000000000, -0.000000000000000000, -1.000000000000000000 ) ) ;
#162 = LINE ( 'NONE', #29, #48 ) ;
#163 = PLANE ( 'NONE',  #39 ) ;
#164 = ORIENTED_EDGE ( 'NONE', *, *, #109, .T. ) ;
#165 = CARTESIAN_POINT ( 'NONE',  ( 30.00000000000000355, -25.00000000000000711, 0.000000000000000000 ) ) ;
#166 = EDGE_CURVE ( 'NONE', #125, #75, #169, .T. ) ;
#167 = AXIS2_PLACEMENT_3D ( 'NONE', #80, #74, #129 ) ;
#168 = FILL_AREA_STYLE ('',( #76 ) ) ;
#169 = LINE ( 'NONE', #142, #43 ) ;
#170 = VERTEX_POINT ( 'NONE', #25 ) ;
#171 = ADVANCED_FACE ( 'NONE', ( #13 ), #78, .F. ) ;
#172 = DIRECTION ( 'NONE',  ( 2.081668171172168513E-16, -1.000000000000000000, 0.000000000000000000 ) ) ;
#173 = DIRECTION ( 'NONE',  ( -1.000000000000000000, -2.081668171172168513E-16, 0.000000000000000000 ) ) ;
#174 = CARTESIAN_POINT ( 'NONE',  ( -30.00000000000000711, 24.99999999999998934, 30.00000000000000000 ) ) ;
#175 = DIRECTION ( 'NONE',  ( -1.000000000000000000, -5.782411586589357392E-17, 0.000000000000000000 ) ) ;
#176 = EDGE_LOOP ( 'NONE', ( #86, #156, #79, #106 ) ) ;
#177 = PRODUCT_DEFINITION ( 'UNKNOWN', '', #111, #137 ) ;
#178 = PRODUCT ( 'cuboid', 'cuboid', '', ( #32 ) ) ;
#179 = ORIENTED_EDGE ( 'NONE', *, *, #121, .T. ) ;
#180 = DIRECTION ( 'NONE',  ( 0.000000000000000000, 0.000000000000000000, -1.000000000000000000 ) ) ;
#181 = CARTESIAN_POINT ( 'NONE',  ( 0.000000000000000000, 0.000000000000000000, 0.000000000000000000 ) ) ;
#182 = ORIENTED_EDGE ( 'NONE', *, *, #18, .F. ) ;
#183 = VECTOR ( 'NONE', #151, 1000.000000000000000 ) ;
#184 = ORIENTED_EDGE ( 'NONE', *, *, #124, .F. ) ;
#185 = PLANE ( 'NONE',  #167 ) ;
#186 = EDGE_LOOP ( 'NONE', ( #164, #153, #37, #7 ) ) ;
#187 = DIRECTION ( 'NONE',  ( -2.081668171172168513E-16, 1.000000000000000000, -0.000000000000000000 ) ) ;
ENDSEC;
END-ISO-10303-21;
