ISO-10303-21;
HEADER;
FILE_DESCRIPTION (( 'STEP AP203' ),
    '1' );
FILE_NAME ('nut_m20.STEP',
    '2026-05-01T12:31:46',
    ( '' ),
    ( '' ),
    'SwSTEP 2.0',
    'SolidWorks 2024',
    '' );
FILE_SCHEMA (( 'CONFIG_CONTROL_DESIGN' ));
ENDSEC;

DATA;
#1 = EDGE_LOOP ( 'NONE', ( #729, #954, #320 ) ) ;
#2 = DIRECTION ( 'NONE',  ( 0.000000000000000000, 0.000000000000000000, -1.000000000000000000 ) ) ;
#3 = VERTEX_POINT ( 'NONE', #737 ) ;
#4 = DATE_TIME_ROLE ( 'creation_date' ) ;
#5 = ADVANCED_FACE ( 'NONE', ( #578 ), #294, .T. ) ;
#6 = CONICAL_SURFACE ( 'NONE', #730, 15.00000000000000355, 1.047197551196595855 ) ;
#7 = CC_DESIGN_PERSON_AND_ORGANIZATION_ASSIGNMENT ( #592, #460, ( #634 ) ) ;
#8 = ORIENTED_EDGE ( 'NONE', *, *, #602, .F. ) ;
#9 = CARTESIAN_POINT ( 'NONE',  ( 15.00000000000000533, -2.917399707855272251, -0.1257913165562891677 ) ) ;
#10 = CARTESIAN_POINT ( 'NONE',  ( 4.336808689942017736E-15, 17.32050807568878525, -16.66025403784437131 ) ) ;
#11 = VECTOR ( 'NONE', #172, 1000.000000000000000 ) ;
#12 = EDGE_LOOP ( 'NONE', ( #635, #337, #291, #122 ) ) ;
#13 = PERSON_AND_ORGANIZATION_ROLE ( 'classification_officer' ) ;
#14 = CARTESIAN_POINT ( 'NONE',  ( 15.00000000000000533, -8.660254037844408614, -1.339745962155625802 ) ) ;
#15 = CARTESIAN_POINT ( 'NONE',  ( -1.223837804583288280, 16.61392498976817933, -17.06819997270559597 ) ) ;
#16 = CARTESIAN_POINT ( 'NONE',  ( -14.99999999999999822, 2.940285371421184291, -0.1547681646796219834 ) ) ;
#17 = PERSON_AND_ORGANIZATION ( #941, #292 ) ;
#18 = CARTESIAN_POINT ( 'NONE',  ( -12.54211377154022777, -10.07931531348313570, -0.5950327307380466335 ) ) ;
#19 = CARTESIAN_POINT ( 'NONE',  ( -4.959366115497693350, 14.45721671389627971, -0.1542126489148667734 ) ) ;
#20 = EDGE_CURVE ( 'NONE', #282, #547, #885, .T. ) ;
#21 = PLANE ( 'NONE',  #500 ) ;
#22 = ADVANCED_FACE ( 'NONE', ( #163 ), #421, .T. ) ;
#23 = DIRECTION ( 'NONE',  ( 0.000000000000000000, 0.000000000000000000, 1.000000000000000000 ) ) ;
#24 = PRODUCT_DEFINITION_SHAPE ( 'NONE', 'NONE',  #1055 ) ;
#25 = PERSON_AND_ORGANIZATION ( #941, #292 ) ;
#26 = CONICAL_SURFACE ( 'NONE', #813, 15.00000000000000355, 1.047197551196595855 ) ;
#27 = PRODUCT_DEFINITION ( 'UNKNOWN', '', #560, #951 ) ;
#28 = DIRECTION ( 'NONE',  ( 0.000000000000000000, 0.000000000000000000, -1.000000000000000000 ) ) ;
#29 = CARTESIAN_POINT ( 'NONE',  ( -1.223837804583287614, 16.61392498976817933, -0.9318000272944026996 ) ) ;
#30 = DIRECTION ( 'NONE',  ( 0.000000000000000000, 0.000000000000000000, 1.000000000000000000 ) ) ;
#31 = DIRECTION ( 'NONE',  ( 0.8660254037844381525, 0.5000000000000008882, 0.000000000000000000 ) ) ;
#32 = ADVANCED_FACE ( 'NONE', ( #485 ), #1000, .T. ) ;
#33 = AXIS2_PLACEMENT_3D ( 'NONE', #61, #303, #618 ) ;
#34 = DATE_AND_TIME ( #1022, #607 ) ;
#35 = ORIENTED_EDGE ( 'NONE', *, *, #96, .F. ) ;
#36 = CARTESIAN_POINT ( 'NONE',  ( -8.775855298491737955, -12.25376565673539098, -0.03166655019043209535 ) ) ;
#37 = FACE_OUTER_BOUND ( 'NONE', #212, .T. ) ;
#38 = LINE ( 'NONE', #998, #947 ) ;
#39 = DIRECTION ( 'NONE',  ( -1.000000000000000000, 0.000000000000000000, 0.000000000000000000 ) ) ;
#40 = DATE_TIME_ROLE ( 'creation_date' ) ;
#41 = ORIENTED_EDGE ( 'NONE', *, *, #319, .F. ) ;
#42 = ADVANCED_FACE ( 'NONE', ( #807 ), #801, .F. ) ;
#43 = CARTESIAN_POINT ( 'NONE',  ( 4.336808689942017736E-15, 17.32050807568878525, -1.339745962155625802 ) ) ;
#44 = DIRECTION ( 'NONE',  ( -0.000000000000000000, -0.000000000000000000, 1.000000000000000000 ) ) ;
#45 = CARTESIAN_POINT ( 'NONE',  ( -15.00000000000000178, -7.245265331205988701, -0.9497981768463727992 ) ) ;
#46 = EDGE_CURVE ( 'NONE', #617, #492, #309, .T. ) ;
#47 = EDGE_LOOP ( 'NONE', ( #344, #685, #599 ) ) ;
#48 = APPROVAL ( #1007, 'UNSPECIFIED' ) ;
#49 = CARTESIAN_POINT ( 'NONE',  ( 8.750000000000001776, 0.000000000000000000, -18.00000000000000000 ) ) ;
#50 = DIRECTION ( 'NONE',  ( 0.000000000000000000, 0.000000000000000000, -1.000000000000000000 ) ) ;
#51 = PERSON_AND_ORGANIZATION_ROLE ( 'classification_officer' ) ;
#52 = ORIENTED_EDGE ( 'NONE', *, *, #208, .F. ) ;
#53 = VECTOR ( 'NONE', #756, 1000.000000000000000 ) ;
#54 = CARTESIAN_POINT ( 'NONE',  ( -12.53723459942790974, 10.08213230481557332, -17.40614952500530421 ) ) ;
#55 = LINE ( 'NONE', #859, #135 ) ;
#56 = ORIENTED_EDGE ( 'NONE', *, *, #787, .T. ) ;
#57 = CARTESIAN_POINT ( 'NONE',  ( -4.960329200286764717, -14.45666067663408327, -0.1276848840588132028 ) ) ;
#58 = ADVANCED_FACE ( 'NONE', ( #365 ), #370, .T. ) ;
#59 = ORIENTED_EDGE ( 'NONE', *, *, #728, .F. ) ;
#60 = B_SPLINE_CURVE_WITH_KNOTS ( 'NONE', 3,
 ( #68, #387, #306, #632, #487, #722, #15, #10 ),
 .UNSPECIFIED., .F., .F.,
 ( 4, 2, 2, 4 ),
 ( 0.008762996616073650755, 0.01094549440787754777, 0.01312799219968144651, 0.01749298778328923706 ),
 .UNSPECIFIED. ) ;
#61 = CARTESIAN_POINT ( 'NONE',  ( 0.000000000000000000, 0.000000000000000000, -18.00000000000000000 ) ) ;
#62 = AXIS2_PLACEMENT_3D ( 'NONE', #878, #654, #253 ) ;
#63 = ADVANCED_FACE ( 'NONE', ( #934, #534 ), #507, .F. ) ;
#64 = EDGE_LOOP ( 'NONE', ( #461, #570, #451, #391, #823, #35 ) ) ;
#65 = CARTESIAN_POINT ( 'NONE',  ( -7.500000000000016875, 12.99038105676657295, 0.000000000000000000 ) ) ;
#66 = APPROVAL_PERSON_ORGANIZATION ( #684, #603, #281 ) ;
#67 = AXIS2_PLACEMENT_3D ( 'NONE', #691, #390, #218 ) ;
#68 = CARTESIAN_POINT ( 'NONE',  ( -7.500000000000016875, 12.99038105676657295, -18.00000000000000000 ) ) ;
#69 = ORIENTED_EDGE ( 'NONE', *, *, #408, .T. ) ;
#70 = CARTESIAN_POINT ( 'NONE',  ( 0.000000000000000000, 0.000000000000000000, 0.000000000000000000 ) ) ;
#71 = CARTESIAN_POINT ( 'NONE',  ( 6.222222600343018328, 13.72810618242296243, 9.293645497274183320E-15 ) ) ;
#72 = B_SPLINE_CURVE_WITH_KNOTS ( 'NONE', 3,
 ( #1041, #462, #868, #221, #783, #65 ),
 .UNSPECIFIED., .F., .F.,
 ( 4, 2, 4 ),
 ( 2.380728851879741573E-07, 0.004381617344479418925, 0.008762996616073650755 ),
 .UNSPECIFIED. ) ;
#73 = ORIENTED_EDGE ( 'NONE', *, *, #236, .F. ) ;
#74 = CARTESIAN_POINT ( 'NONE',  ( 15.00000000000000355, 0.000000000000000000, -18.00000000000000000 ) ) ;
#75 = CARTESIAN_POINT ( 'NONE',  ( 0.000000000000000000, 0.000000000000000000, 0.000000000000000000 ) ) ;
#76 = DIRECTION ( 'NONE',  ( 1.000000000000000000, 0.000000000000000000, 0.000000000000000000 ) ) ;
#77 = CIRCLE ( 'NONE', #514, 8.750000000000001776 ) ;
#78 = EDGE_LOOP ( 'NONE', ( #69, #649, #759, #304 ) ) ;
#79 = CARTESIAN_POINT ( 'NONE',  ( 15.00000000000000178, -5.086199619605005218, -17.52447153105984867 ) ) ;
#80 = CARTESIAN_POINT ( 'NONE',  ( 6.224144701508300237, -13.72699645679781177, -0.03166655019043469743 ) ) ;
#81 = CARTESIAN_POINT ( 'NONE',  ( 0.000000000000000000, 0.000000000000000000, -25.03750572909317285 ) ) ;
#82 = SHAPE_REPRESENTATION ( 'nut_m20', ( #62, #1018 ), #1047 ) ;
#83 = PERSON_AND_ORGANIZATION_ROLE ( 'design_owner' ) ;
#84 = CARTESIAN_POINT ( 'NONE',  ( 0.000000000000000000, 0.000000000000000000, 0.000000000000000000 ) ) ;
#85 = CARTESIAN_POINT ( 'NONE',  ( -15.00000000000000000, 8.660254037844376640, -1.339745962155614700 ) ) ;
#86 = CARTESIAN_POINT ( 'NONE',  ( -15.00000000000000000, -8.660254037844413944, -1.339745962155625802 ) ) ;
#87 = VERTEX_POINT ( 'NONE', #125 ) ;
#88 = SECURITY_CLASSIFICATION_LEVEL ( 'unclassified' ) ;
#89 = APPROVAL_PERSON_ORGANIZATION ( #909, #316, #980 ) ;
#90 = CARTESIAN_POINT ( 'NONE',  ( 0.000000000000000000, 0.000000000000000000, 0.000000000000000000 ) ) ;
#91 = DIRECTION ( 'NONE',  ( -0.000000000000000000, -0.000000000000000000, 1.000000000000000000 ) ) ;
#92 = CONICAL_SURFACE ( 'NONE', #112, 8.624999999999998224, 0.9599310885968781459 ) ;
#93 = EDGE_LOOP ( 'NONE', ( #968, #173, #944, #664 ) ) ;
#94 = MECHANICAL_CONTEXT ( 'NONE', #403, 'mechanical' ) ;
#95 = VERTEX_POINT ( 'NONE', #352 ) ;
#96 = EDGE_CURVE ( 'NONE', #672, #361, #668, .T. ) ;
#97 = CARTESIAN_POINT ( 'NONE',  ( -10.04063388450233241, -11.52354539963690172, -0.1542126489148779867 ) ) ;
#98 = DIRECTION ( 'NONE',  ( 1.000000000000000000, 0.000000000000000000, 0.000000000000000000 ) ) ;
#99 = EDGE_CURVE ( 'NONE', #486, #705, #763, .T. ) ;
#100 = CARTESIAN_POINT ( 'NONE',  ( 0.000000000000000000, 0.000000000000000000, -18.00000000000000000 ) ) ;
#101 = PERSON_AND_ORGANIZATION_ROLE ( 'creator' ) ;
#102 = ORIENTED_EDGE ( 'NONE', *, *, #882, .F. ) ;
#103 = CARTESIAN_POINT ( 'NONE',  ( -7.500000000000015099, -12.99038105676657473, 0.000000000000000000 ) ) ;
#104 = CARTESIAN_POINT ( 'NONE',  ( 10.04063388450232530, 11.52354539963687508, -0.1542126489148634982 ) ) ;
#105 = DIRECTION ( 'NONE',  ( -1.000000000000000000, 0.000000000000000000, 0.000000000000000000 ) ) ;
#106 = APPROVAL_STATUS ( 'not_yet_approved' ) ;
#107 = AXIS2_PLACEMENT_3D ( 'NONE', #594, #505, #98 ) ;
#108 = CARTESIAN_POINT ( 'NONE',  ( -4.857225732735059864E-14, -17.32050807568878525, -1.339745962155625802 ) ) ;
#109 = LINE ( 'NONE', #267, #699 ) ;
#110 = CARTESIAN_POINT ( 'NONE',  ( 5.204170427930421283E-15, 17.32050807568878525, -18.00000000000000000 ) ) ;
#111 = CARTESIAN_POINT ( 'NONE',  ( -14.99999999999999822, 7.259939241378997821, -17.06449010018913626 ) ) ;
#112 = AXIS2_PLACEMENT_3D ( 'NONE', #343, #182, #124 ) ;
#113 = APPROVAL_STATUS ( 'not_yet_approved' ) ;
#114 = AXIS2_PLACEMENT_3D ( 'NONE', #799, #400, #315 ) ;
#115 = ORIENTED_EDGE ( 'NONE', *, *, #397, .T. ) ;
#116 = CARTESIAN_POINT ( 'NONE',  ( 4.336808689942017736E-15, 17.32050807568878525, -16.66025403784437131 ) ) ;
#117 = CARTESIAN_POINT ( 'NONE',  ( 4.959366115497690686, -14.45721671389630103, -17.84578735108510728 ) ) ;
#118 = EDGE_CURVE ( 'NONE', #3, #495, #961, .T. ) ;
#119 = EDGE_CURVE ( 'NONE', #490, #282, #989, .T. ) ;
#120 = DIRECTION ( 'NONE',  ( 0.5000000000000008882, -0.8660254037844381525, 0.000000000000000000 ) ) ;
#121 = CALENDAR_DATE ( 2026, 1, 5 ) ;
#122 = ORIENTED_EDGE ( 'NONE', *, *, #524, .F. ) ;
#123 = FACE_OUTER_BOUND ( 'NONE', #790, .T. ) ;
#124 = DIRECTION ( 'NONE',  ( 1.000000000000000000, 0.000000000000000000, 0.000000000000000000 ) ) ;
#125 = CARTESIAN_POINT ( 'NONE',  ( 15.00000000000000533, -8.660254037844408614, -1.339745962155625802 ) ) ;
#126 = APPROVAL_STATUS ( 'not_yet_approved' ) ;
#127 = APPROVAL_PERSON_ORGANIZATION ( #592, #452, #838 ) ;
#128 = ORIENTED_EDGE ( 'NONE', *, *, #962, .F. ) ;
#129 = B_SPLINE_CURVE_WITH_KNOTS ( 'NONE', 3,
 ( #427, #749, #852, #269, #682, #611, #111, #375 ),
 .UNSPECIFIED., .F., .F.,
 ( 4, 2, 2, 4 ),
 ( 0.02421212571992734097, 0.02640370064518845344, 0.02859527557044956592, 0.03297842542097179086 ),
 .UNSPECIFIED. ) ;
#130 = CONICAL_SURFACE ( 'NONE', #716, 15.00000000000000355, 1.047197551196595855 ) ;
#131 = FACE_OUTER_BOUND ( 'NONE', #475, .T. ) ;
#132 = DIRECTION ( 'NONE',  ( 0.000000000000000000, -0.000000000000000000, 1.000000000000000000 ) ) ;
#133 = COORDINATED_UNIVERSAL_TIME_OFFSET ( 1, 0, .AHEAD. ) ;
#134 = ORIENTED_EDGE ( 'NONE', *, *, #806, .F. ) ;
#135 = VECTOR ( 'NONE', #454, 1000.000000000000000 ) ;
#136 = EDGE_CURVE ( 'NONE', #189, #170, #129, .T. ) ;
#137 = CYLINDRICAL_SURFACE ( 'NONE', #33, 8.750000000000001776 ) ;
#138 = EDGE_LOOP ( 'NONE', ( #587, #831, #848 ) ) ;
#139 = CC_DESIGN_PERSON_AND_ORGANIZATION_ASSIGNMENT ( #724, #101, ( #560 ) ) ;
#140 = CARTESIAN_POINT ( 'NONE',  ( -7.500000000000015099, -12.99038105676657473, 0.000000000000000000 ) ) ;
#141 = ADVANCED_FACE ( 'NONE', ( #437 ), #938, .F. ) ;
#142 = ORIENTED_EDGE ( 'NONE', *, *, #399, .T. ) ;
#143 = CARTESIAN_POINT ( 'NONE',  ( -7.500000000000016875, 12.99038105676657295, -18.00000000000000000 ) ) ;
#144 = CARTESIAN_POINT ( 'NONE',  ( 1.226901868756286040, 16.61215595149309010, -0.9307786725699525032 ) ) ;
#145 = B_SPLINE_CURVE_WITH_KNOTS ( 'NONE', 3,
 ( #815, #879, #453, #57, #960, #140 ),
 .UNSPECIFIED., .F., .F.,
 ( 4, 2, 4 ),
 ( 2.380728852452845389E-07, 0.004381617344479474437, 0.008762996616073702796 ),
 .UNSPECIFIED. ) ;
#146 = VECTOR ( 'NONE', #261, 1000.000000000000000 ) ;
#147 = CONTEXT_DEPENDENT_SHAPE_REPRESENTATION ( #354, #24 ) ;
#148 = ORIENTED_EDGE ( 'NONE', *, *, #679, .T. ) ;
#149 = EDGE_CURVE ( 'NONE', #440, #307, #604, .T. ) ;
#150 = AXIS2_PLACEMENT_3D ( 'NONE', #590, #914, #105 ) ;
#151 = CARTESIAN_POINT ( 'NONE',  ( -5.007715329123875599E-16, -17.32050807568881368, -18.00000000000000000 ) ) ;
#152 = ORIENTED_EDGE ( 'NONE', *, *, #136, .T. ) ;
#153 = CC_DESIGN_PERSON_AND_ORGANIZATION_ASSIGNMENT ( #915, #608, ( #1004 ) ) ;
#154 =( NAMED_UNIT ( * ) SI_UNIT ( $, .STERADIAN. ) SOLID_ANGLE_UNIT ( ) );
#155 = CARTESIAN_POINT ( 'NONE',  ( -8.750000000000001776, 1.071565949253934321E-15, -17.09934057723785372 ) ) ;
#156 = CARTESIAN_POINT ( 'NONE',  ( -15.00000000000000000, -8.660254037844413944, -1.339745962155625802 ) ) ;
#157 = ORIENTED_EDGE ( 'NONE', *, *, #470, .F. ) ;
#158 = CARTESIAN_POINT ( 'NONE',  ( 0.000000000000000000, 0.000000000000000000, -18.00000000000000000 ) ) ;
#159 = CARTESIAN_POINT ( 'NONE',  ( -4.857225732735059864E-14, -17.32050807568878525, -1.339745962155625802 ) ) ;
#160 = DIRECTION ( 'NONE',  ( -0.5000000000000009992, -0.8660254037844381525, 0.000000000000000000 ) ) ;
#161 = LINE ( 'NONE', #899, #11 ) ;
#162 = AXIS2_PLACEMENT_3D ( 'NONE', #177, #424, #198 ) ;
#163 = FACE_OUTER_BOUND ( 'NONE', #881, .T. ) ;
#164 = CALENDAR_DATE ( 2026, 1, 5 ) ;
#165 = ORIENTED_EDGE ( 'NONE', *, *, #288, .F. ) ;
#166 = DIRECTION ( 'NONE',  ( -0.000000000000000000, 0.000000000000000000, -1.000000000000000000 ) ) ;
#167 = EDGE_CURVE ( 'NONE', #257, #3, #55, .T. ) ;
#168 = ORIENTED_EDGE ( 'NONE', *, *, #236, .T. ) ;
#169 = DIRECTION ( 'NONE',  ( 1.000000000000000000, 0.000000000000000000, 0.000000000000000000 ) ) ;
#170 = VERTEX_POINT ( 'NONE', #596 ) ;
#171 = CARTESIAN_POINT ( 'NONE',  ( 15.00000000000000355, 2.940285371421202498, -17.84523183532038360 ) ) ;
#172 = DIRECTION ( 'NONE',  ( -0.8191520442889900222, 0.000000000000000000, -0.5735764363510486019 ) ) ;
#173 = ORIENTED_EDGE ( 'NONE', *, *, #99, .T. ) ;
#174 = PERSON_AND_ORGANIZATION ( #941, #292 ) ;
#175 = CONICAL_SURFACE ( 'NONE', #769, 8.624999999999998224, 0.9599310885968781459 ) ;
#176 = CARTESIAN_POINT ( 'NONE',  ( 0.000000000000000000, 0.000000000000000000, -18.00000000000000000 ) ) ;
#177 = CARTESIAN_POINT ( 'NONE',  ( 0.000000000000000000, 0.000000000000000000, 0.000000000000000000 ) ) ;
#178 = ORIENTED_EDGE ( 'NONE', *, *, #397, .F. ) ;
#179 = PRODUCT ( 'nut_m20', 'nut_m20', '', ( #94 ) ) ;
#180 = DIRECTION ( 'NONE',  ( -0.000000000000000000, 0.000000000000000000, -1.000000000000000000 ) ) ;
#181 = CARTESIAN_POINT ( 'NONE',  ( -7.500000000000016875, 12.99038105676657295, 0.000000000000000000 ) ) ;
#182 = DIRECTION ( 'NONE',  ( -0.000000000000000000, -0.000000000000000000, 1.000000000000000000 ) ) ;
#183 = COORDINATED_UNIVERSAL_TIME_OFFSET ( 1, 0, .AHEAD. ) ;
#184 = VERTEX_POINT ( 'NONE', #364 ) ;
#185 = CARTESIAN_POINT ( 'NONE',  ( -7.500000000000015099, -12.99038105676657473, 0.000000000000000000 ) ) ;
#186 = DIRECTION ( 'NONE',  ( 1.000000000000000000, 0.000000000000000000, 0.000000000000000000 ) ) ;
#187 = DIRECTION ( 'NONE',  ( 0.000000000000000000, 0.000000000000000000, -1.000000000000000000 ) ) ;
#188 = COORDINATED_UNIVERSAL_TIME_OFFSET ( 1, 0, .AHEAD. ) ;
#189 = VERTEX_POINT ( 'NONE', #933 ) ;
#190 = LOCAL_TIME ( 14, 31, 46.00000000000000000, #241 ) ;
#191 = DIRECTION ( 'NONE',  ( 0.000000000000000000, 0.000000000000000000, -1.000000000000000000 ) ) ;
#192 = CC_DESIGN_DATE_AND_TIME_ASSIGNMENT ( #34, #920, ( #634 ) ) ;
#193 = CARTESIAN_POINT ( 'NONE',  ( 0.000000000000000000, 0.000000000000000000, -18.00000000000000000 ) ) ;
#194 = CARTESIAN_POINT ( 'NONE',  ( -8.750000000000001776, 1.071565949253934321E-15, -18.00000000000000000 ) ) ;
#195 = APPROVAL_ROLE ( '' ) ;
#196 = AXIS2_PLACEMENT_3D ( 'NONE', #321, #91, #793 ) ;
#197 = ORIENTED_EDGE ( 'NONE', *, *, #651, .F. ) ;
#198 = DIRECTION ( 'NONE',  ( -1.000000000000000000, 0.000000000000000000, 0.000000000000000000 ) ) ;
#199 = CARTESIAN_POINT ( 'NONE',  ( -5.204170427930421283E-14, -17.32050807568878881, -16.66025403784437131 ) ) ;
#200 = DIRECTION ( 'NONE',  ( 0.000000000000000000, 0.000000000000000000, -1.000000000000000000 ) ) ;
#201 = COORDINATED_UNIVERSAL_TIME_OFFSET ( 1, 0, .AHEAD. ) ;
#202 = ORIENTED_EDGE ( 'NONE', *, *, #438, .T. ) ;
#203 = FACE_OUTER_BOUND ( 'NONE', #64, .T. ) ;
#204 = DIRECTION ( 'NONE',  ( 0.000000000000000000, 0.000000000000000000, 1.000000000000000000 ) ) ;
#205 = APPROVAL_ROLE ( '' ) ;
#206 = ADVANCED_FACE ( 'NONE', ( #131 ), #21, .T. ) ;
#207 = ORIENTED_EDGE ( 'NONE', *, *, #399, .F. ) ;
#208 = EDGE_CURVE ( 'NONE', #361, #184, #1052, .T. ) ;
#209 = AXIS2_PLACEMENT_3D ( 'NONE', #820, #673, #510 ) ;
#210 = CARTESIAN_POINT ( 'NONE',  ( 15.00000000000000000, 8.660254037844413944, -16.66025403784437131 ) ) ;
#211 = CC_DESIGN_PERSON_AND_ORGANIZATION_ASSIGNMENT ( #418, #83, ( #179 ) ) ;
#212 = EDGE_LOOP ( 'NONE', ( #248, #1016, #779 ) ) ;
#213 = AXIS2_PLACEMENT_3D ( 'NONE', #246, #743, #23 ) ;
#214 = CARTESIAN_POINT ( 'NONE',  ( 15.00000000000000533, -8.660254037844408614, -16.66025403784437131 ) ) ;
#215 = CIRCLE ( 'NONE', #910, 15.00000000000000355 ) ;
#216 = EDGE_CURVE ( 'NONE', #170, #547, #434, .T. ) ;
#217 = B_SPLINE_CURVE_WITH_KNOTS ( 'NONE', 3,
 ( #214, #1045, #796, #297, #79, #301, #784, #74 ),
 .UNSPECIFIED., .F., .F.,
 ( 4, 2, 2, 4 ),
 ( 0.01545103129405036614, 0.01764130490051961375, 0.01983157850698885963, 0.02421212571992735138 ),
 .UNSPECIFIED. ) ;
#218 = DIRECTION ( 'NONE',  ( -1.000000000000000000, 0.000000000000000000, 0.000000000000000000 ) ) ;
#219 = LOCAL_TIME ( 14, 31, 46.00000000000000000, #133 ) ;
#220 = ORIENTED_EDGE ( 'NONE', *, *, #136, .F. ) ;
#221 = CARTESIAN_POINT ( 'NONE',  ( -10.03967079971327792, 11.52410143689908040, -0.1276848840587986311 ) ) ;
#222 = DIRECTION ( 'NONE',  ( -1.000000000000000000, 0.000000000000000000, 0.000000000000000000 ) ) ;
#223 = ORIENTED_EDGE ( 'NONE', *, *, #528, .F. ) ;
#224 = ADVANCED_FACE ( 'NONE', ( #919 ), #564, .F. ) ;
#225 = DIRECTION ( 'NONE',  ( 0.000000000000000000, 0.000000000000000000, 1.000000000000000000 ) ) ;
#226 = ADVANCED_FACE ( 'NONE', ( #675 ), #327, .T. ) ;
#227 = LOCAL_TIME ( 14, 31, 46.00000000000000000, #422 ) ;
#228 = CC_DESIGN_PERSON_AND_ORGANIZATION_ASSIGNMENT ( #689, #444, ( #913 ) ) ;
#229 = B_SPLINE_CURVE_WITH_KNOTS ( 'NONE', 3,
 ( #780, #144, #785, #381, #71, #538 ),
 .UNSPECIFIED., .F., .F.,
 ( 4, 2, 4 ),
 ( 2.380728851894369303E-07, 0.004381617344479441477, 0.008762996616073692388 ),
 .UNSPECIFIED. ) ;
#230 = ORIENTED_EDGE ( 'NONE', *, *, #798, .F. ) ;
#231 = CARTESIAN_POINT ( 'NONE',  ( 4.336808689942017736E-15, 17.32050807568878525, -1.339745962155625802 ) ) ;
#232 = CARTESIAN_POINT ( 'NONE',  ( -15.00000000000000000, -5.807457610949214200, -17.38138907689424428 ) ) ;
#233 = ORIENTED_EDGE ( 'NONE', *, *, #528, .T. ) ;
#234 = CARTESIAN_POINT ( 'NONE',  ( -10.00000000000000000, 1.224646799147353256E-15, -1.084202172485504434E-16 ) ) ;
#235 = EDGE_LOOP ( 'NONE', ( #861, #732, #41, #59, #765, #928 ) ) ;
#236 = EDGE_CURVE ( 'NONE', #398, #95, #351, .T. ) ;
#237 = CARTESIAN_POINT ( 'NONE',  ( 0.5291074685374007602, 0.6383512100001237366, 16.61993411857986302 ) ) ;
#238 = CARTESIAN_POINT ( 'NONE',  ( 15.00000000000000533, -8.660254037844408614, -16.66025403784437131 ) ) ;
#239 = CIRCLE ( 'NONE', #258, 15.00000000000000355 ) ;
#240 = ORIENTED_EDGE ( 'NONE', *, *, #328, .F. ) ;
#241 = COORDINATED_UNIVERSAL_TIME_OFFSET ( 1, 0, .AHEAD. ) ;
#242 = ORIENTED_EDGE ( 'NONE', *, *, #472, .F. ) ;
#243 = ADVANCED_FACE ( 'NONE', ( #681 ), #734, .F. ) ;
#244 = CARTESIAN_POINT ( 'NONE',  ( -15.00000000000000000, 8.660254037844376640, -1.339745962155614700 ) ) ;
#245 = AXIS2_PLACEMENT_3D ( 'NONE', #84, #561, #805 ) ;
#246 = CARTESIAN_POINT ( 'NONE',  ( -15.00000000000000000, 8.660254037844376640, -18.00000000000000000 ) ) ;
#247 = PERSON_AND_ORGANIZATION ( #941, #292 ) ;
#248 = ORIENTED_EDGE ( 'NONE', *, *, #512, .T. ) ;
#249 = DIRECTION ( 'NONE',  ( -0.000000000000000000, -0.000000000000000000, 1.000000000000000000 ) ) ;
#250 = CARTESIAN_POINT ( 'NONE',  ( 7.500000000000014211, -12.99038105676657651, -18.00000000000000000 ) ) ;
#251 = ADVANCED_FACE ( 'NONE', ( #278 ), #92, .F. ) ;
#252 = ORIENTED_EDGE ( 'NONE', *, *, #302, .T. ) ;
#253 = DIRECTION ( 'NONE',  ( 1.000000000000000000, 0.000000000000000000, 0.000000000000000000 ) ) ;
#254 = FACE_OUTER_BOUND ( 'NONE', #771, .T. ) ;
#255 = DIRECTION ( 'NONE',  ( -1.000000000000000000, 0.000000000000000000, 0.000000000000000000 ) ) ;
#256 = B_SPLINE_CURVE_WITH_KNOTS ( 'NONE', 3,
 ( #116, #368, #441, #821, #277, #601 ),
 .UNSPECIFIED., .F., .F.,
 ( 4, 2, 4 ),
 ( 2.380728851895446093E-07, 0.004381617344479441477, 0.008762996616073692388 ),
 .UNSPECIFIED. ) ;
#257 = VERTEX_POINT ( 'NONE', #284 ) ;
#258 = AXIS2_PLACEMENT_3D ( 'NONE', #158, #631, #869 ) ;
#259 = DIRECTION ( 'NONE',  ( 0.000000000000000000, 0.000000000000000000, 1.000000000000000000 ) ) ;
#260 = CARTESIAN_POINT ( 'NONE',  ( 15.00000000000000000, 1.466655175406221145, -17.96888574067494915 ) ) ;
#261 = DIRECTION ( 'NONE',  ( 0.000000000000000000, 0.000000000000000000, 1.000000000000000000 ) ) ;
#262 = DIRECTION ( 'NONE',  ( 0.5000000000000012212, 0.8660254037844380415, -0.000000000000000000 ) ) ;
#263 = CIRCLE ( 'NONE', #893, 8.750000000000001776 ) ;
#264 = ORIENTED_EDGE ( 'NONE', *, *, #319, .T. ) ;
#265 = DATE_AND_TIME ( #121, #219 ) ;
#266 = CARTESIAN_POINT ( 'NONE',  ( 8.624999999999998224, 0.000000000000000000, -0.9627853650383578765 ) ) ;
#267 = CARTESIAN_POINT ( 'NONE',  ( 15.00000000000000000, 8.660254037844374864, -18.00000000000000000 ) ) ;
#268 = CYLINDRICAL_SURFACE ( 'NONE', #349, 10.00000000000000178 ) ;
#269 = CARTESIAN_POINT ( 'NONE',  ( -14.99999999999999822, 2.940285371421201610, -17.84523183532037649 ) ) ;
#270 = COORDINATED_UNIVERSAL_TIME_OFFSET ( 1, 0, .AHEAD. ) ;
#271 = VERTEX_POINT ( 'NONE', #828 ) ;
#272 = DIRECTION ( 'NONE',  ( -1.000000000000000000, 0.000000000000000000, 0.000000000000000000 ) ) ;
#273 = DIRECTION ( 'NONE',  ( -1.000000000000000000, 0.000000000000000000, 0.000000000000000000 ) ) ;
#274 = DIRECTION ( 'NONE',  ( 1.000000000000000000, 0.000000000000000000, 0.000000000000000000 ) ) ;
#275 = CALENDAR_DATE ( 2026, 1, 5 ) ;
#276 = EDGE_LOOP ( 'NONE', ( #73, #233, #972, #165 ) ) ;
#277 = CARTESIAN_POINT ( 'NONE',  ( 6.222222600343018328, 13.72810618242296243, -18.00000000000001421 ) ) ;
#278 = FACE_OUTER_BOUND ( 'NONE', #873, .T. ) ;
#279 = CLOSED_SHELL ( 'NONE', ( #312, #243, #981, #1042, #411, #871, #206, #141, #58, #32, #22, #63, #285, #692, #446, #226, #772, #5, #891, #624, #694, #629, #600, #657, #900, #251, #224, #42 ) ) ;
#280 = CARTESIAN_POINT ( 'NONE',  ( 0.000000000000000000, 0.000000000000000000, -17.97459999999999525 ) ) ;
#281 = APPROVAL_ROLE ( '' ) ;
#282 = VERTEX_POINT ( 'NONE', #741 ) ;
#283 = CARTESIAN_POINT ( 'NONE',  ( -6.224144701508297572, 13.72699645679777802, -0.03166655019041881430 ) ) ;
#284 = CARTESIAN_POINT ( 'NONE',  ( 8.750000000000001776, 0.000000000000000000, -17.09934057723785372 ) ) ;
#285 = ADVANCED_FACE ( 'NONE', ( #448, #203 ), #768, .T. ) ;
#286 = CARTESIAN_POINT ( 'NONE',  ( -15.00000000000000000, -2.917399707855273583, -0.1257913165562894453 ) ) ;
#287 = SHAPE_DEFINITION_REPRESENTATION ( #342, #994 ) ;
#288 = EDGE_CURVE ( 'NONE', #95, #3, #506, .T. ) ;
#289 = ORIENTED_EDGE ( 'NONE', *, *, #167, .F. ) ;
#290 = DIRECTION ( 'NONE',  ( 0.000000000000000000, 0.000000000000000000, -1.000000000000000000 ) ) ;
#291 = ORIENTED_EDGE ( 'NONE', *, *, #707, .F. ) ;
#292 = ORGANIZATION ( 'UNSPECIFIED', 'UNSPECIFIED', '' ) ;
#293 = CARTESIAN_POINT ( 'NONE',  ( 10.00000000000000000, 0.000000000000000000, -1.084202172485504434E-16 ) ) ;
#294 = CONICAL_SURFACE ( 'NONE', #539, 15.00000000000000355, 1.047197551196595855 ) ;
#295 = ORIENTED_EDGE ( 'NONE', *, *, #216, .T. ) ;
#296 = AXIS2_PLACEMENT_3D ( 'NONE', #605, #187, #850 ) ;
#297 = CARTESIAN_POINT ( 'NONE',  ( 15.00000000000000355, -5.807457610949213311, -17.38138907689424428 ) ) ;
#298 = VECTOR ( 'NONE', #849, 1000.000000000000000 ) ;
#299 = CARTESIAN_POINT ( 'NONE',  ( -8.777777399657011870, 12.25265593111018703, -18.00000000000001421 ) ) ;
#300 = ORIENTED_EDGE ( 'NONE', *, *, #488, .T. ) ;
#301 = CARTESIAN_POINT ( 'NONE',  ( 15.00000000000000000, -2.917399707855268698, -17.87420868344370817 ) ) ;
#302 = EDGE_CURVE ( 'NONE', #643, #87, #38, .T. ) ;
#303 = DIRECTION ( 'NONE',  ( 0.000000000000000000, 0.000000000000000000, 1.000000000000000000 ) ) ;
#304 = ORIENTED_EDGE ( 'NONE', *, *, #923, .F. ) ;
#305 = CARTESIAN_POINT ( 'NONE',  ( 0.000000000000000000, 0.000000000000000000, -18.00000000000000000 ) ) ;
#306 = CARTESIAN_POINT ( 'NONE',  ( -6.224144701508296684, 13.72699645679777802, -17.96833344980957037 ) ) ;
#307 = VERTEX_POINT ( 'NONE', #350 ) ;
#308 = CARTESIAN_POINT ( 'NONE',  ( -15.00000000000000000, -8.660254037844413944, -16.66025403784437131 ) ) ;
#309 = B_SPLINE_CURVE_WITH_KNOTS ( 'NONE', 3,
 ( #726, #402, #781, #317, #641, #323, #926, #606 ),
 .UNSPECIFIED., .F., .F.,
 ( 4, 2, 2, 4 ),
 ( 0.02421212571992734791, 0.02640370064518846038, 0.02859527557044957286, 0.03297842542097179780 ),
 .UNSPECIFIED. ) ;
#310 = VECTOR ( 'NONE', #670, 1000.000000000000000 ) ;
#311 = DIRECTION ( 'NONE',  ( 0.000000000000000000, 0.000000000000000000, 1.000000000000000000 ) ) ;
#312 = ADVANCED_FACE ( 'NONE', ( #669 ), #268, .F. ) ;
#313 = ORIENTED_EDGE ( 'NONE', *, *, #965, .T. ) ;
#314 =( LENGTH_UNIT ( ) NAMED_UNIT ( * ) SI_UNIT ( .MILLI., .METRE. ) );
#315 = DIRECTION ( 'NONE',  ( -1.000000000000000000, 0.000000000000000000, 0.000000000000000000 ) ) ;
#316 = APPROVAL ( #502, 'UNSPECIFIED' ) ;
#317 = CARTESIAN_POINT ( 'NONE',  ( 15.00000000000000000, 2.940285371421200722, -0.1547681646796237043 ) ) ;
#318 = PERSON_AND_ORGANIZATION ( #941, #292 ) ;
#319 = EDGE_CURVE ( 'NONE', #867, #825, #687, .T. ) ;
#320 = ORIENTED_EDGE ( 'NONE', *, *, #982, .F. ) ;
#321 = CARTESIAN_POINT ( 'NONE',  ( 0.000000000000000000, 0.000000000000000000, 0.000000000000000000 ) ) ;
#322 = CC_DESIGN_APPROVAL ( #316, ( #560 ) ) ;
#323 = CARTESIAN_POINT ( 'NONE',  ( 15.00000000000000533, 5.841256279250652383, -0.5988621213590733516 ) ) ;
#324 = ORIENTED_EDGE ( 'NONE', *, *, #1009, .F. ) ;
#325 = PLANE ( 'NONE',  #367 ) ;
#326 = LINE ( 'NONE', #988, #1024 ) ;
#327 = CONICAL_SURFACE ( 'NONE', #818, 15.00000000000000355, 1.047197551196595855 ) ;
#328 = EDGE_CURVE ( 'NONE', #1029, #189, #382, .T. ) ;
#329 = CIRCLE ( 'NONE', #932, 8.750000000000001776 ) ;
#330 = LOCAL_TIME ( 14, 31, 46.00000000000000000, #665 ) ;
#331 = EDGE_LOOP ( 'NONE', ( #324, #128 ) ) ;
#332 = DATE_TIME_ROLE ( 'classification_date' ) ;
#333 = EDGE_CURVE ( 'NONE', #170, #792, #1014, .T. ) ;
#334 = CARTESIAN_POINT ( 'NONE',  ( 13.77309813124372617, -9.368606162040098440, -0.9307786725699567221 ) ) ;
#335 = CARTESIAN_POINT ( 'NONE',  ( 8.777777399657020752, -12.25265593111020834, -17.99999999999999645 ) ) ;
#336 = PRODUCT_RELATED_PRODUCT_CATEGORY ( 'detail', '', ( #179 ) ) ;
#337 = ORIENTED_EDGE ( 'NONE', *, *, #167, .T. ) ;
#338 = DIRECTION ( 'NONE',  ( 0.000000000000000000, 0.000000000000000000, 1.000000000000000000 ) ) ;
#339 = ORIENTED_EDGE ( 'NONE', *, *, #923, .T. ) ;
#340 = CARTESIAN_POINT ( 'NONE',  ( 10.66879301128633273, 11.16087755869420661, -17.75502564263295113 ) ) ;
#341 = CARTESIAN_POINT ( 'NONE',  ( -5.204170427930421283E-14, -17.32050807568878881, -16.66025403784437131 ) ) ;
#342 = PRODUCT_DEFINITION_SHAPE ( 'NONE', 'NONE',  #712 ) ;
#343 = CARTESIAN_POINT ( 'NONE',  ( 0.000000000000000000, 0.000000000000000000, -0.9627853650383578765 ) ) ;
#344 = ORIENTED_EDGE ( 'NONE', *, *, #208, .T. ) ;
#345 = CALENDAR_DATE ( 2026, 1, 5 ) ;
#346 = B_SPLINE_CURVE_WITH_KNOTS ( 'NONE', 3,
 ( #950, #384, #260, #171, #794, #917, #987, #655 ),
 .UNSPECIFIED., .F., .F.,
 ( 4, 2, 2, 4 ),
 ( 0.02421212571992735138, 0.02640370064518846385, 0.02859527557044957632, 0.03297842542097179780 ),
 .UNSPECIFIED. ) ;
#347 = CARTESIAN_POINT ( 'NONE',  ( 15.00000000000000533, -1.463440508679565433, 1.907518197216684758E-15 ) ) ;
#348 = DIRECTION ( 'NONE',  ( -1.000000000000000000, 0.000000000000000000, 0.000000000000000000 ) ) ;
#349 = AXIS2_PLACEMENT_3D ( 'NONE', #688, #1012, #519 ) ;
#350 = CARTESIAN_POINT ( 'NONE',  ( 7.500000000000019540, 12.99038105676657118, -18.00000000000000000 ) ) ;
#351 = CIRCLE ( 'NONE', #150, 10.00000000000000178 ) ;
#352 = CARTESIAN_POINT ( 'NONE',  ( 10.00000000000000178, 0.000000000000000000, -18.00000000000000000 ) ) ;
#353 = DATE_AND_TIME ( #515, #767 ) ;
#354 =( REPRESENTATION_RELATIONSHIP ('NONE','NONE', #82, #994 ) REPRESENTATION_RELATIONSHIP_WITH_TRANSFORMATION ( #853 )SHAPE_REPRESENTATION_RELATIONSHIP( ) );
#355 = ORIENTED_EDGE ( 'NONE', *, *, #884, .F. ) ;
#356 = DIRECTION ( 'NONE',  ( -1.000000000000000000, 0.000000000000000000, 0.000000000000000000 ) ) ;
#357 = CARTESIAN_POINT ( 'NONE',  ( 10.66879301128633095, 11.16087755869420661, -0.2449743573670485064 ) ) ;
#358 = DIRECTION ( 'NONE',  ( -0.8660254037844380415, 0.5000000000000012212, 0.000000000000000000 ) ) ;
#359 = CARTESIAN_POINT ( 'NONE',  ( 0.000000000000000000, 0.000000000000000000, -18.00000000000000000 ) ) ;
#360 = APPROVAL_DATE_TIME ( #1001, #48 ) ;
#361 = VERTEX_POINT ( 'NONE', #614 ) ;
#362 = EDGE_CURVE ( 'NONE', #865, #825, #145, .T. ) ;
#363 = CARTESIAN_POINT ( 'NONE',  ( 7.500000000000019540, 12.99038105676657118, 0.000000000000000000 ) ) ;
#364 = CARTESIAN_POINT ( 'NONE',  ( -5.204170427930421283E-14, -17.32050807568878881, -16.66025403784437131 ) ) ;
#365 = FACE_OUTER_BOUND ( 'NONE', #562, .T. ) ;
#366 = ORIENTED_EDGE ( 'NONE', *, *, #512, .F. ) ;
#367 = AXIS2_PLACEMENT_3D ( 'NONE', #880, #419, #581 ) ;
#368 = CARTESIAN_POINT ( 'NONE',  ( 1.226901868756286040, 16.61215595149309010, -17.06922132743003573 ) ) ;
#369 = DIRECTION ( 'NONE',  ( -1.000000000000000000, 0.000000000000000000, 0.000000000000000000 ) ) ;
#370 = PLANE ( 'NONE',  #371 ) ;
#371 = AXIS2_PLACEMENT_3D ( 'NONE', #1031, #120, #31 ) ;
#372 = PERSON_AND_ORGANIZATION_ROLE ( 'creator' ) ;
#373 = VERTEX_POINT ( 'NONE', #870 ) ;
#374 = DIRECTION ( 'NONE',  ( 0.000000000000000000, -0.000000000000000000, 1.000000000000000000 ) ) ;
#375 = CARTESIAN_POINT ( 'NONE',  ( -15.00000000000000000, 8.660254037844413944, -16.66025403784437131 ) ) ;
#376 = ORIENTED_EDGE ( 'NONE', *, *, #965, .F. ) ;
#377 = DESIGN_CONTEXT ( 'detailed design', #970, 'design' ) ;
#378 = CARTESIAN_POINT ( 'NONE',  ( -15.00000000000000355, -2.917399707855271807, -17.87420868344371527 ) ) ;
#379 = ORIENTED_EDGE ( 'NONE', *, *, #789, .F. ) ;
#380 = CIRCLE ( 'NONE', #872, 10.00000000000000000 ) ;
#381 = CARTESIAN_POINT ( 'NONE',  ( 4.960329200286743401, 14.45666067663406373, -0.1276848840587987977 ) ) ;
#382 = B_SPLINE_CURVE_WITH_KNOTS ( 'NONE', 3,
 ( #1027, #610, #937, #232, #713, #378, #708, #953 ),
 .UNSPECIFIED., .F., .F.,
 ( 4, 2, 2, 4 ),
 ( 0.01545103129405035920, 0.01764130490051960681, 0.01983157850698885269, 0.02421212571992734097 ),
 .UNSPECIFIED. ) ;
#383 = ORIENTED_EDGE ( 'NONE', *, *, #328, .T. ) ;
#384 = CARTESIAN_POINT ( 'NONE',  ( 15.00000000000000178, 0.7321549951477569484, -18.00000000000000355 ) ) ;
#385 = AXIS2_PLACEMENT_3D ( 'NONE', #595, #925, #843 ) ;
#386 = AXIS2_PLACEMENT_3D ( 'NONE', #725, #2, #1003 ) ;
#387 = CARTESIAN_POINT ( 'NONE',  ( -6.863500354500580158, 13.35786429843477485, -18.00000000000000711 ) ) ;
#388 = ORIENTED_EDGE ( 'NONE', *, *, #787, .F. ) ;
#389 = DIRECTION ( 'NONE',  ( 1.000000000000000000, 0.000000000000000000, 0.000000000000000000 ) ) ;
#390 = DIRECTION ( 'NONE',  ( 0.000000000000000000, -0.000000000000000000, 1.000000000000000000 ) ) ;
#391 = ORIENTED_EDGE ( 'NONE', *, *, #149, .F. ) ;
#392 = DIRECTION ( 'NONE',  ( 0.000000000000000000, 0.000000000000000000, 1.000000000000000000 ) ) ;
#393 = EDGE_CURVE ( 'NONE', #792, #189, #215, .T. ) ;
#394 = AXIS2_PLACEMENT_3D ( 'NONE', #706, #623, #544 ) ;
#395 = DIRECTION ( 'NONE',  ( 0.000000000000000000, 0.000000000000000000, -1.000000000000000000 ) ) ;
#396 = CARTESIAN_POINT ( 'NONE',  ( 15.00000000000000000, 8.660254037844413944, -16.66025403784437131 ) ) ;
#397 = EDGE_CURVE ( 'NONE', #184, #865, #866, .T. ) ;
#398 = VERTEX_POINT ( 'NONE', #459 ) ;
#399 = EDGE_CURVE ( 'NONE', #95, #398, #583, .T. ) ;
#400 = DIRECTION ( 'NONE',  ( -0.000000000000000000, 0.000000000000000000, -1.000000000000000000 ) ) ;
#401 = EDGE_CURVE ( 'NONE', #189, #672, #481, .T. ) ;
#402 = CARTESIAN_POINT ( 'NONE',  ( 15.00000000000000178, 0.7321549951477553941, 2.035420172252083715E-15 ) ) ;
#403 = APPLICATION_CONTEXT ( 'configuration controlled 3d designs of mechanical parts and assemblies' ) ;
#404 = FACE_OUTER_BOUND ( 'NONE', #1, .T. ) ;
#405 = DIRECTION ( 'NONE',  ( -0.000000000000000000, -0.000000000000000000, 1.000000000000000000 ) ) ;
#406 = APPLICATION_PROTOCOL_DEFINITION ( 'international standard', 'config_control_design', 1994, #403 ) ;
#407 = CARTESIAN_POINT ( 'NONE',  ( 4.959366115497691574, -14.45721671389630458, -0.1542126489148833157 ) ) ;
#408 = EDGE_CURVE ( 'NONE', #516, #705, #263, .T. ) ;
#409 = VERTEX_POINT ( 'NONE', #210 ) ;
#410 = COORDINATED_UNIVERSAL_TIME_OFFSET ( 1, 0, .AHEAD. ) ;
#411 = ADVANCED_FACE ( 'NONE', ( #625 ), #137, .F. ) ;
#412 = CC_DESIGN_PERSON_AND_ORGANIZATION_ASSIGNMENT ( #1015, #372, ( #913 ) ) ;
#413 = CC_DESIGN_APPROVAL ( #452, ( #634 ) ) ;
#414 = CARTESIAN_POINT ( 'NONE',  ( 13.77616219541669906, 9.366837123764989670, -17.06819997270561373 ) ) ;
#415 = CARTESIAN_POINT ( 'NONE',  ( 6.863500354500584599, -13.35786429843479972, -5.195276581984249552E-15 ) ) ;
#416 = AXIS2_PLACEMENT_3D ( 'NONE', #484, #166, #896 ) ;
#417 = CARTESIAN_POINT ( 'NONE',  ( -15.00000000000000355, 0.000000000000000000, 0.000000000000000000 ) ) ;
#418 = PERSON_AND_ORGANIZATION ( #941, #292 ) ;
#419 = DIRECTION ( 'NONE',  ( -0.5000000000000009992, 0.8660254037844381525, 0.000000000000000000 ) ) ;
#420 = LINE ( 'NONE', #49, #146 ) ;
#421 = PLANE ( 'NONE',  #213 ) ;
#422 = COORDINATED_UNIVERSAL_TIME_OFFSET ( 1, 0, .AHEAD. ) ;
#423 = CARTESIAN_POINT ( 'NONE',  ( 15.00000000000000000, -7.245265331205987813, -0.9497981768463726882 ) ) ;
#424 = DIRECTION ( 'NONE',  ( 0.000000000000000000, 0.000000000000000000, -1.000000000000000000 ) ) ;
#425 = EDGE_CURVE ( 'NONE', #1044, #271, #229, .T. ) ;
#426 = CARTESIAN_POINT ( 'NONE',  ( 1.223837804583272959, -16.61392498976822552, -17.06819997270558176 ) ) ;
#427 = CARTESIAN_POINT ( 'NONE',  ( -15.00000000000000000, 0.000000000000000000, -18.00000000000000000 ) ) ;
#428 = CC_DESIGN_APPROVAL ( #888, ( #27 ) ) ;
#429 = DATE_AND_TIME ( #345, #522 ) ;
#430 = ORIENTED_EDGE ( 'NONE', *, *, #615, .T. ) ;
#431 = FACE_OUTER_BOUND ( 'NONE', #958, .T. ) ;
#432 = CARTESIAN_POINT ( 'NONE',  ( 15.00000000000000000, 8.660254037844413944, -1.339745962155625802 ) ) ;
#433 = AXIS2_PLACEMENT_3D ( 'NONE', #443, #200, #837 ) ;
#434 = LINE ( 'NONE', #836, #53 ) ;
#435 = B_SPLINE_CURVE_WITH_KNOTS ( 'NONE', 3,
 ( #809, #415, #80, #407, #645, #557, #652, #159 ),
 .UNSPECIFIED., .F., .F.,
 ( 4, 2, 2, 4 ),
 ( 0.008762996616073640346, 0.01094549440787754430, 0.01312799219968144651, 0.01749298778328925441 ),
 .UNSPECIFIED. ) ;
#436 = CONICAL_SURFACE ( 'NONE', #788, 15.00000000000000355, 1.047197551196595855 ) ;
#437 = FACE_OUTER_BOUND ( 'NONE', #638, .T. ) ;
#438 = EDGE_CURVE ( 'NONE', #672, #1029, #851, .T. ) ;
#439 = MECHANICAL_CONTEXT ( 'NONE', #992, 'mechanical' ) ;
#440 = VERTEX_POINT ( 'NONE', #549 ) ;
#441 = CARTESIAN_POINT ( 'NONE',  ( 2.462765400572097807, 15.89862980871758680, -17.40614952500529711 ) ) ;
#442 = CARTESIAN_POINT ( 'NONE',  ( 2.457886228459766453, -15.90144680005009192, -17.40496726926194171 ) ) ;
#443 = CARTESIAN_POINT ( 'NONE',  ( 5.204170427930421283E-15, 17.32050807568878525, 0.000000000000000000 ) ) ;
#444 = PERSON_AND_ORGANIZATION_ROLE ( 'design_supplier' ) ;
#445 = VERTEX_POINT ( 'NONE', #293 ) ;
#446 = ADVANCED_FACE ( 'NONE', ( #702 ), #862, .T. ) ;
#447 = CARTESIAN_POINT ( 'NONE',  ( 0.000000000000000000, 0.000000000000000000, -18.00000000000000000 ) ) ;
#448 = FACE_BOUND ( 'NONE', #810, .T. ) ;
#449 = CARTESIAN_POINT ( 'NONE',  ( -15.00000000000000000, -5.086199619605007882, -0.4755284689401473863 ) ) ;
#450 = APPLICATION_PROTOCOL_DEFINITION ( 'international standard', 'config_control_design', 1994, #970 ) ;
#451 = ORIENTED_EDGE ( 'NONE', *, *, #577, .F. ) ;
#452 = APPROVAL ( #106, 'UNKNOWN' ) ;
#453 = CARTESIAN_POINT ( 'NONE',  ( -2.462765400572129337, -15.89862980871760101, -0.5938504749947095540 ) ) ;
#454 = DIRECTION ( 'NONE',  ( 0.8191520442889900222, 1.003171929053522528E-16, -0.5735764363510486019 ) ) ;
#455 = ORIENTED_EDGE ( 'NONE', *, *, #982, .T. ) ;
#456 = CARTESIAN_POINT ( 'NONE',  ( -7.500000000000015099, -12.99038105676657473, -18.00000000000000000 ) ) ;
#457 = B_SPLINE_CURVE_WITH_KNOTS ( 'NONE', 3,
 ( #571, #504, #911, #660, #340, #588, #414, #396 ),
 .UNSPECIFIED., .F., .F.,
 ( 4, 2, 2, 4 ),
 ( 0.008762996616073692388, 0.01094549440787757205, 0.01312799219968145345, 0.01749298778328921278 ),
 .UNSPECIFIED. ) ;
#458 = ORIENTED_EDGE ( 'NONE', *, *, #524, .T. ) ;
#459 = CARTESIAN_POINT ( 'NONE',  ( -10.00000000000000178, 1.224646799147353454E-15, -18.00000000000000000 ) ) ;
#460 = PERSON_AND_ORGANIZATION_ROLE ( 'classification_officer' ) ;
#461 = ORIENTED_EDGE ( 'NONE', *, *, #401, .F. ) ;
#462 = CARTESIAN_POINT ( 'NONE',  ( -13.77309813124372262, 9.368606162040075347, -0.9307786725699458419 ) ) ;
#463 = CARTESIAN_POINT ( 'NONE',  ( 0.000000000000000000, 0.000000000000000000, 0.000000000000000000 ) ) ;
#464 = CONICAL_SURFACE ( 'NONE', #662, 15.00000000000000355, 1.047197551196595855 ) ;
#465 = DIRECTION ( 'NONE',  ( -0.000000000000000000, -0.000000000000000000, 1.000000000000000000 ) ) ;
#466 = ORIENTED_EDGE ( 'NONE', *, *, #401, .T. ) ;
#467 = UNCERTAINTY_MEASURE_WITH_UNIT (LENGTH_MEASURE( 1.000000000000000082E-05 ), #952, 'distance_accuracy_value', 'NONE');
#468 = CARTESIAN_POINT ( 'NONE',  ( 0.000000000000000000, 0.000000000000000000, -18.00000000000000000 ) ) ;
#469 = ORIENTED_EDGE ( 'NONE', *, *, #698, .F. ) ;
#470 = EDGE_CURVE ( 'NONE', #792, #373, #60, .T. ) ;
#471 = DIRECTION ( 'NONE',  ( -0.000000000000000000, -0.000000000000000000, 1.000000000000000000 ) ) ;
#472 = EDGE_CURVE ( 'NONE', #867, #865, #435, .T. ) ;
#473 = DIRECTION ( 'NONE',  ( -0.000000000000000000, -0.000000000000000000, 1.000000000000000000 ) ) ;
#474 = FACE_OUTER_BOUND ( 'NONE', #78, .T. ) ;
#475 = EDGE_LOOP ( 'NONE', ( #963, #537, #525, #469, #819, #388 ) ) ;
#476 = CARTESIAN_POINT ( 'NONE',  ( 10.03967079971328147, -11.52410143689910882, -0.1276848840588125644 ) ) ;
#477 = AXIS2_PLACEMENT_3D ( 'NONE', #90, #180, #356 ) ;
#478 = DIRECTION ( 'NONE',  ( -1.000000000000000000, 0.000000000000000000, 0.000000000000000000 ) ) ;
#479 = DIRECTION ( 'NONE',  ( 0.8660254037844380415, -0.5000000000000008882, 0.000000000000000000 ) ) ;
#480 = DATE_AND_TIME ( #824, #190 ) ;
#481 = CIRCLE ( 'NONE', #648, 15.00000000000000355 ) ;
#482 = B_SPLINE_CURVE_WITH_KNOTS ( 'NONE', 3,
 ( #680, #499, #283, #19, #686, #918, #29, #43 ),
 .UNSPECIFIED., .F., .F.,
 ( 4, 2, 2, 4 ),
 ( 0.008762996616073650755, 0.01094549440787754777, 0.01312799219968144651, 0.01749298778328923706 ),
 .UNSPECIFIED. ) ;
#483 = CONICAL_SURFACE ( 'NONE', #162, 15.00000000000000355, 1.047197551196595855 ) ;
#484 = CARTESIAN_POINT ( 'NONE',  ( 0.000000000000000000, 0.000000000000000000, 0.000000000000000000 ) ) ;
#485 = FACE_OUTER_BOUND ( 'NONE', #916, .T. ) ;
#486 = VERTEX_POINT ( 'NONE', #155 ) ;
#487 = CARTESIAN_POINT ( 'NONE',  ( -4.331206988713679706, 14.81988455483894640, -17.75502564263294758 ) ) ;
#488 = EDGE_CURVE ( 'NONE', #825, #282, #930, .T. ) ;
#489 = APPROVAL ( #563, 'UNSPECIFIED' ) ;
#490 = VERTEX_POINT ( 'NONE', #86 ) ;
#491 = APPROVAL_DATE_TIME ( #480, #316 ) ;
#492 = VERTEX_POINT ( 'NONE', #975 ) ;
#493 = DIRECTION ( 'NONE',  ( 1.000000000000000000, 0.000000000000000000, 0.000000000000000000 ) ) ;
#494 = LINE ( 'NONE', #814, #753 ) ;
#495 = VERTEX_POINT ( 'NONE', #731 ) ;
#496 = B_SPLINE_CURVE_WITH_KNOTS ( 'NONE', 3,
 ( #363, #922, #746, #104, #357, #1025, #1017, #432 ),
 .UNSPECIFIED., .F., .F.,
 ( 4, 2, 2, 4 ),
 ( 0.008762996616073692388, 0.01094549440787757205, 0.01312799219968144998, 0.01749298778328920931 ),
 .UNSPECIFIED. ) ;
#497 =( NAMED_UNIT ( * ) SI_UNIT ( $, .STERADIAN. ) SOLID_ANGLE_UNIT ( ) );
#498 = CARTESIAN_POINT ( 'NONE',  ( 15.00000000000000178, -7.955993959308930386, -1.136443589194640724 ) ) ;
#499 = CARTESIAN_POINT ( 'NONE',  ( -6.863500354500581047, 13.35786429843477485, 1.021140569562421774E-14 ) ) ;
#500 = AXIS2_PLACEMENT_3D ( 'NONE', #761, #262, #358 ) ;
#501 = CARTESIAN_POINT ( 'NONE',  ( -15.00000000000000178, 7.259939241378964070, -0.9355098998108527519 ) ) ;
#502 = APPROVAL_STATUS ( 'not_yet_approved' ) ;
#503 = EDGE_CURVE ( 'NONE', #1029, #490, #326, .T. ) ;
#504 = CARTESIAN_POINT ( 'NONE',  ( 8.136499645499451816, 12.62289781509836928, -18.00000000000001066 ) ) ;
#505 = DIRECTION ( 'NONE',  ( -0.000000000000000000, -0.000000000000000000, 1.000000000000000000 ) ) ;
#506 = LINE ( 'NONE', #663, #946 ) ;
#507 = PLANE ( 'NONE',  #433 ) ;
#508 = PERSON_AND_ORGANIZATION ( #941, #292 ) ;
#509 = CC_DESIGN_DATE_AND_TIME_ASSIGNMENT ( #991, #4, ( #27 ) ) ;
#510 = DIRECTION ( 'NONE',  ( 1.000000000000000000, 0.000000000000000000, 0.000000000000000000 ) ) ;
#511 = CARTESIAN_POINT ( 'NONE',  ( -8.750000000000001776, 1.071565949253934321E-15, -0.8752594227621410816 ) ) ;
#512 = EDGE_CURVE ( 'NONE', #643, #361, #762, .T. ) ;
#513 = CARTESIAN_POINT ( 'NONE',  ( 7.500000000000014211, -12.99038105676657651, -18.00000000000000000 ) ) ;
#514 = AXIS2_PLACEMENT_3D ( 'NONE', #719, #28, #76 ) ;
#515 = CALENDAR_DATE ( 2026, 1, 5 ) ;
#516 = VERTEX_POINT ( 'NONE', #572 ) ;
#517 = LINE ( 'NONE', #766, #298 ) ;
#518 = VECTOR ( 'NONE', #225, 1000.000000000000000 ) ;
#519 = DIRECTION ( 'NONE',  ( 1.000000000000000000, 0.000000000000000000, 0.000000000000000000 ) ) ;
#520 = CIRCLE ( 'NONE', #114, 15.00000000000000355 ) ;
#521 = DIRECTION ( 'NONE',  ( -0.000000000000000000, -0.000000000000000000, 1.000000000000000000 ) ) ;
#522 = LOCAL_TIME ( 14, 31, 46.00000000000000000, #183 ) ;
#523 = DATE_TIME_ROLE ( 'classification_date' ) ;
#524 = EDGE_CURVE ( 'NONE', #486, #495, #161, .T. ) ;
#525 = ORIENTED_EDGE ( 'NONE', *, *, #711, .T. ) ;
#526 = CARTESIAN_POINT ( 'NONE',  ( 0.000000000000000000, 0.000000000000000000, -18.00000000000000000 ) ) ;
#527 = CARTESIAN_POINT ( 'NONE',  ( 0.000000000000000000, 0.000000000000000000, -17.97459999999999525 ) ) ;
#528 = EDGE_CURVE ( 'NONE', #398, #495, #494, .T. ) ;
#529 = CARTESIAN_POINT ( 'NONE',  ( -15.00000000000000178, -1.463440508679566321, 1.843143693225357538E-15 ) ) ;
#530 = CC_DESIGN_DATE_AND_TIME_ASSIGNMENT ( #429, #40, ( #712 ) ) ;
#531 = CALENDAR_DATE ( 2026, 1, 5 ) ;
#532 = ORIENTED_EDGE ( 'NONE', *, *, #438, .F. ) ;
#533 = CARTESIAN_POINT ( 'NONE',  ( 6.224144701508300237, -13.72699645679780822, -17.96833344980955971 ) ) ;
#534 = FACE_OUTER_BOUND ( 'NONE', #235, .T. ) ;
#535 = SHAPE_DEFINITION_REPRESENTATION ( #832, #82 ) ;
#536 = CONICAL_SURFACE ( 'NONE', #597, 15.00000000000000355, 1.047197551196595855 ) ;
#537 = ORIENTED_EDGE ( 'NONE', *, *, #425, .T. ) ;
#538 = CARTESIAN_POINT ( 'NONE',  ( 7.500000000000019540, 12.99038105676657118, 0.000000000000000000 ) ) ;
#539 = AXIS2_PLACEMENT_3D ( 'NONE', #100, #653, #986 ) ;
#540 = ORIENTED_EDGE ( 'NONE', *, *, #846, .T. ) ;
#541 = SHAPE_REPRESENTATION_RELATIONSHIP ( 'NONE' , 'NONE' ,  #994, #833 ) ;
#542 = DIRECTION ( 'NONE',  ( 1.000000000000000000, 0.000000000000000000, 0.000000000000000000 ) ) ;
#543 = VERTEX_POINT ( 'NONE', #234 ) ;
#544 = DIRECTION ( 'NONE',  ( -1.000000000000000000, 0.000000000000000000, 0.000000000000000000 ) ) ;
#545 = CARTESIAN_POINT ( 'NONE',  ( -10.66879301128634161, -11.16087755869423326, -17.75502564263293692 ) ) ;
#546 = EDGE_CURVE ( 'NONE', #617, #271, #704, .T. ) ;
#547 = VERTEX_POINT ( 'NONE', #244 ) ;
#548 = APPROVAL_PERSON_ORGANIZATION ( #174, #888, #647 ) ;
#549 = CARTESIAN_POINT ( 'NONE',  ( 15.00000000000000355, 0.000000000000000000, -18.00000000000000000 ) ) ;
#550 = EDGE_LOOP ( 'NONE', ( #430, #1048, #897 ) ) ;
#551 = AXIS2_PLACEMENT_3D ( 'NONE', #359, #676, #274 ) ;
#552 = APPLICATION_CONTEXT ( 'configuration controlled 3d designs of mechanical parts and assemblies' ) ;
#553 = CARTESIAN_POINT ( 'NONE',  ( -10.03967079971327614, 11.52410143689908573, -17.87231511594120192 ) ) ;
#554 = CARTESIAN_POINT ( 'NONE',  ( -13.77616219541670972, -9.366837123765012763, -0.9318000272944030327 ) ) ;
#555 = B_SPLINE_CURVE_WITH_KNOTS ( 'NONE', 3,
 ( #185, #754, #36, #97, #1010, #18, #554, #156 ),
 .UNSPECIFIED., .F., .F.,
 ( 4, 2, 2, 4 ),
 ( 0.008762996616073702796, 0.01094549440787758419, 0.01312799219968146386, 0.01749298778328922666 ),
 .UNSPECIFIED. ) ;
#556 = ORIENTED_EDGE ( 'NONE', *, *, #775, .T. ) ;
#557 = CARTESIAN_POINT ( 'NONE',  ( 2.457886228459771782, -15.90144680005008837, -0.5950327307380601782 ) ) ;
#558 = ORIENTED_EDGE ( 'NONE', *, *, #393, .T. ) ;
#559 = PERSON_AND_ORGANIZATION_ROLE ( 'creator' ) ;
#560 = PRODUCT_DEFINITION_FORMATION_WITH_SPECIFIED_SOURCE ( 'ANY', '', #179, .NOT_KNOWN. ) ;
#561 = DIRECTION ( 'NONE',  ( 0.000000000000000000, 0.000000000000000000, -1.000000000000000000 ) ) ;
#562 = EDGE_LOOP ( 'NONE', ( #252, #455, #949, #178, #52, #366 ) ) ;
#563 = APPROVAL_STATUS ( 'not_yet_approved' ) ;
#564 = CONICAL_SURFACE ( 'NONE', #1037, 10.00000000000000355, 0.9599310885968781459 ) ;
#565 = ORIENTED_EDGE ( 'NONE', *, *, #806, .T. ) ;
#566 = CIRCLE ( 'NONE', #1038, 15.00000000000000355 ) ;
#567 = DIRECTION ( 'NONE',  ( -1.000000000000000000, 1.776356839400250465E-15, 0.000000000000000000 ) ) ;
#568 = CARTESIAN_POINT ( 'NONE',  ( -15.00000000000000000, 0.7321549951477501761, 2.069725006615882090E-15 ) ) ;
#569 = APPROVAL_DATE_TIME ( #969, #888 ) ;
#570 = ORIENTED_EDGE ( 'NONE', *, *, #393, .F. ) ;
#571 = CARTESIAN_POINT ( 'NONE',  ( 7.500000000000019540, 12.99038105676657118, -18.00000000000000000 ) ) ;
#572 = CARTESIAN_POINT ( 'NONE',  ( 8.750000000000001776, 0.000000000000000000, -0.8752594227621410816 ) ) ;
#573 = ORIENTED_EDGE ( 'NONE', *, *, #503, .F. ) ;
#574 = CARTESIAN_POINT ( 'NONE',  ( 15.00000000000000355, -5.086199619605007882, -0.4755284689401475529 ) ) ;
#575 = FACE_OUTER_BOUND ( 'NONE', #138, .T. ) ;
#576 = CC_DESIGN_APPROVAL ( #603, ( #752 ) ) ;
#577 = EDGE_CURVE ( 'NONE', #307, #792, #566, .T. ) ;
#578 = FACE_OUTER_BOUND ( 'NONE', #47, .T. ) ;
#579 = CALENDAR_DATE ( 2026, 1, 5 ) ;
#580 = EDGE_CURVE ( 'NONE', #486, #257, #329, .T. ) ;
#581 = DIRECTION ( 'NONE',  ( -0.8660254037844380415, -0.5000000000000008882, 0.000000000000000000 ) ) ;
#582 = CARTESIAN_POINT ( 'NONE',  ( -6.222222600343033427, -13.72810618242298375, -17.99999999999999289 ) ) ;
#583 = CIRCLE ( 'NONE', #67, 10.00000000000000178 ) ;
#584 = B_SPLINE_CURVE_WITH_KNOTS ( 'NONE', 3,
 ( #341, #827, #931, #997, #582, #667 ),
 .UNSPECIFIED., .F., .F.,
 ( 4, 2, 4 ),
 ( 2.380728852459750031E-07, 0.004381617344479475304, 0.008762996616073702796 ),
 .UNSPECIFIED. ) ;
#585 = DIRECTION ( 'NONE',  ( -0.000000000000000000, -0.000000000000000000, 1.000000000000000000 ) ) ;
#586 = CALENDAR_DATE ( 2026, 1, 5 ) ;
#587 = ORIENTED_EDGE ( 'NONE', *, *, #546, .F. ) ;
#588 = CARTESIAN_POINT ( 'NONE',  ( 12.54211377154021889, 10.07931531348310727, -17.40496726926197013 ) ) ;
#589 = DIRECTION ( 'NONE',  ( -0.000000000000000000, -0.000000000000000000, 1.000000000000000000 ) ) ;
#590 = CARTESIAN_POINT ( 'NONE',  ( 0.000000000000000000, 0.000000000000000000, -18.00000000000000000 ) ) ;
#591 = DIRECTION ( 'NONE',  ( -1.000000000000000000, 0.000000000000000000, 0.000000000000000000 ) ) ;
#592 = PERSON_AND_ORGANIZATION ( #887, #856 ) ;
#593 = EDGE_LOOP ( 'NONE', ( #940, #230, #556, #102 ) ) ;
#594 = CARTESIAN_POINT ( 'NONE',  ( 0.000000000000000000, 0.000000000000000000, -17.97459999999999525 ) ) ;
#595 = CARTESIAN_POINT ( 'NONE',  ( 0.000000000000000000, 0.000000000000000000, 0.000000000000000000 ) ) ;
#596 = CARTESIAN_POINT ( 'NONE',  ( -15.00000000000000000, 8.660254037844413944, -16.66025403784437131 ) ) ;
#597 = AXIS2_PLACEMENT_3D ( 'NONE', #447, #589, #186 ) ;
#598 = COORDINATED_UNIVERSAL_TIME_OFFSET ( 1, 0, .AHEAD. ) ;
#599 = ORIENTED_EDGE ( 'NONE', *, *, #96, .T. ) ;
#600 = ADVANCED_FACE ( 'NONE', ( #575 ), #436, .T. ) ;
#601 = CARTESIAN_POINT ( 'NONE',  ( 7.500000000000019540, 12.99038105676657118, -18.00000000000000000 ) ) ;
#602 = EDGE_CURVE ( 'NONE', #373, #1044, #718, .T. ) ;
#603 = APPROVAL ( #126, 'UNSPECIFIED' ) ;
#604 = CIRCLE ( 'NONE', #551, 15.00000000000000355 ) ;
#605 = CARTESIAN_POINT ( 'NONE',  ( 0.000000000000000000, 0.000000000000000000, -17.97459999999999525 ) ) ;
#606 = CARTESIAN_POINT ( 'NONE',  ( 15.00000000000000000, 8.660254037844413944, -1.339745962155625802 ) ) ;
#607 = LOCAL_TIME ( 14, 31, 46.00000000000000000, #750 ) ;
#608 = PERSON_AND_ORGANIZATION_ROLE ( 'design_owner' ) ;
#609 = ORIENTED_EDGE ( 'NONE', *, *, #577, .T. ) ;
#610 = CARTESIAN_POINT ( 'NONE',  ( -15.00000000000000178, -7.955993959308928609, -16.86355641080535506 ) ) ;
#611 = CARTESIAN_POINT ( 'NONE',  ( -14.99999999999999822, 5.841256279250650607, -17.40113787864092032 ) ) ;
#612 = SECURITY_CLASSIFICATION_LEVEL ( 'unclassified' ) ;
#613 = EDGE_LOOP ( 'NONE', ( #264, #626, #242 ) ) ;
#614 = CARTESIAN_POINT ( 'NONE',  ( 7.500000000000014211, -12.99038105676657651, -18.00000000000000000 ) ) ;
#615 = EDGE_CURVE ( 'NONE', #678, #271, #520, .T. ) ;
#616 = CIRCLE ( 'NONE', #394, 8.750000000000001776 ) ;
#617 = VERTEX_POINT ( 'NONE', #640 ) ;
#618 = DIRECTION ( 'NONE',  ( 1.000000000000000000, 0.000000000000000000, 0.000000000000000000 ) ) ;
#619 = AXIS2_PLACEMENT_3D ( 'NONE', #1039, #465, #542 ) ;
#620 = CC_DESIGN_DATE_AND_TIME_ASSIGNMENT ( #642, #332, ( #924 ) ) ;
#621 = CONICAL_SURFACE ( 'NONE', #386, 15.00000000000000355, 1.047197551196595855 ) ;
#622 = EDGE_LOOP ( 'NONE', ( #993, #56, #609 ) ) ;
#623 = DIRECTION ( 'NONE',  ( -0.000000000000000000, -0.000000000000000000, 1.000000000000000000 ) ) ;
#624 = ADVANCED_FACE ( 'NONE', ( #971 ), #979, .T. ) ;
#625 = FACE_OUTER_BOUND ( 'NONE', #593, .T. ) ;
#626 = ORIENTED_EDGE ( 'NONE', *, *, #362, .F. ) ;
#627 = CARTESIAN_POINT ( 'NONE',  ( 8.777777399657018975, -12.25265593111021190, -5.041540102057595618E-15 ) ) ;
#628 = CARTESIAN_POINT ( 'NONE',  ( -7.500000000000016875, 12.99038105676657295, -18.00000000000000000 ) ) ;
#629 = ADVANCED_FACE ( 'NONE', ( #404 ), #621, .T. ) ;
#630 = ORIENTED_EDGE ( 'NONE', *, *, #362, .T. ) ;
#631 = DIRECTION ( 'NONE',  ( 0.000000000000000000, -0.000000000000000000, 1.000000000000000000 ) ) ;
#632 = CARTESIAN_POINT ( 'NONE',  ( -4.959366115497692462, 14.45721671389627083, -17.84578735108512859 ) ) ;
#633 = CC_DESIGN_DATE_AND_TIME_ASSIGNMENT ( #770, #523, ( #752 ) ) ;
#634 = SECURITY_CLASSIFICATION ( '', '', #612 ) ;
#635 = ORIENTED_EDGE ( 'NONE', *, *, #580, .T. ) ;
#636 = CC_DESIGN_APPROVAL ( #1026, ( #712 ) ) ;
#637 = CARTESIAN_POINT ( 'NONE',  ( 2.437283619154643810E-15, 17.32050807568878525, -18.00000000000000000 ) ) ;
#638 = EDGE_LOOP ( 'NONE', ( #355, #936, #902, #921, #1032, #777 ) ) ;
#639 = PERSON_AND_ORGANIZATION_ROLE ( 'design_supplier' ) ;
#640 = CARTESIAN_POINT ( 'NONE',  ( 15.00000000000000355, 0.000000000000000000, 0.000000000000000000 ) ) ;
#641 = CARTESIAN_POINT ( 'NONE',  ( 14.99999999999999822, 3.671711945059629834, -0.2466688111672959982 ) ) ;
#642 = DATE_AND_TIME ( #1051, #227 ) ;
#643 = VERTEX_POINT ( 'NONE', #674 ) ;
#644 =( GEOMETRIC_REPRESENTATION_CONTEXT ( 3 ) GLOBAL_UNCERTAINTY_ASSIGNED_CONTEXT ( ( #467 ) ) GLOBAL_UNIT_ASSIGNED_CONTEXT ( ( #952, #874, #154 ) ) REPRESENTATION_CONTEXT ( 'NONE', 'WORKASPACE' ) );
#645 = CARTESIAN_POINT ( 'NONE',  ( 4.331206988713677930, -14.81988455483897660, -0.2449743573670694896 ) ) ;
#646 = ORIENTED_EDGE ( 'NONE', *, *, #20, .F. ) ;
#647 = APPROVAL_ROLE ( '' ) ;
#648 = AXIS2_PLACEMENT_3D ( 'NONE', #468, #374, #863 ) ;
#649 = ORIENTED_EDGE ( 'NONE', *, *, #651, .T. ) ;
#650 = LINE ( 'NONE', #266, #797 ) ;
#651 = EDGE_CURVE ( 'NONE', #705, #543, #517, .T. ) ;
#652 = CARTESIAN_POINT ( 'NONE',  ( 1.223837804583277178, -16.61392498976821486, -0.9318000272944229057 ) ) ;
#653 = DIRECTION ( 'NONE',  ( -0.000000000000000000, -0.000000000000000000, 1.000000000000000000 ) ) ;
#654 = DIRECTION ( 'NONE',  ( 0.000000000000000000, 0.000000000000000000, 1.000000000000000000 ) ) ;
#655 = CARTESIAN_POINT ( 'NONE',  ( 15.00000000000000000, 8.660254037844413944, -16.66025403784437131 ) ) ;
#656 = DIRECTION ( 'NONE',  ( -0.000000000000000000, -0.000000000000000000, 1.000000000000000000 ) ) ;
#657 = ADVANCED_FACE ( 'NONE', ( #906 ), #483, .T. ) ;
#658 = CARTESIAN_POINT ( 'NONE',  ( -15.00000000000000000, 3.671711945059609850, -0.2466688111672931394 ) ) ;
#659 = APPLICATION_PROTOCOL_DEFINITION ( 'international standard', 'config_control_design', 1994, #552 ) ;
#660 = CARTESIAN_POINT ( 'NONE',  ( 10.04063388450232353, 11.52354539963687508, -17.84578735108513214 ) ) ;
#661 = DIRECTION ( 'NONE',  ( 1.000000000000000000, 0.000000000000000000, 0.000000000000000000 ) ) ;
#662 = AXIS2_PLACEMENT_3D ( 'NONE', #176, #898, #493 ) ;
#663 = CARTESIAN_POINT ( 'NONE',  ( 10.00000000000000178, 0.000000000000000000, -25.03750572909317285 ) ) ;
#664 = ORIENTED_EDGE ( 'NONE', *, *, #775, .F. ) ;
#665 = COORDINATED_UNIVERSAL_TIME_OFFSET ( 1, 0, .AHEAD. ) ;
#666 = FACE_OUTER_BOUND ( 'NONE', #1050, .T. ) ;
#667 = CARTESIAN_POINT ( 'NONE',  ( -7.500000000000015099, -12.99038105676657473, -18.00000000000000000 ) ) ;
#668 = CIRCLE ( 'NONE', #773, 15.00000000000000355 ) ;
#669 = FACE_OUTER_BOUND ( 'NONE', #276, .T. ) ;
#670 = DIRECTION ( 'NONE',  ( 0.000000000000000000, 0.000000000000000000, 1.000000000000000000 ) ) ;
#671 = APPROVAL_DATE_TIME ( #353, #452 ) ;
#672 = VERTEX_POINT ( 'NONE', #1011 ) ;
#673 = DIRECTION ( 'NONE',  ( -0.000000000000000000, -0.000000000000000000, 1.000000000000000000 ) ) ;
#674 = CARTESIAN_POINT ( 'NONE',  ( 15.00000000000000533, -8.660254037844408614, -16.66025403784437131 ) ) ;
#675 = FACE_OUTER_BOUND ( 'NONE', #1040, .T. ) ;
#676 = DIRECTION ( 'NONE',  ( -0.000000000000000000, -0.000000000000000000, 1.000000000000000000 ) ) ;
#677 = PERSON_AND_ORGANIZATION ( #941, #292 ) ;
#678 = VERTEX_POINT ( 'NONE', #181 ) ;
#679 = EDGE_CURVE ( 'NONE', #678, #1044, #482, .T. ) ;
#680 = CARTESIAN_POINT ( 'NONE',  ( -7.500000000000016875, 12.99038105676657295, 0.000000000000000000 ) ) ;
#681 = FACE_OUTER_BOUND ( 'NONE', #12, .T. ) ;
#682 = CARTESIAN_POINT ( 'NONE',  ( -14.99999999999999822, 3.671711945059630278, -17.75333118883270345 ) ) ;
#683 = AXIS2_PLACEMENT_3D ( 'NONE', #733, #259, #816 ) ;
#684 = PERSON_AND_ORGANIZATION ( #941, #292 ) ;
#685 = ORIENTED_EDGE ( 'NONE', *, *, #789, .T. ) ;
#686 = CARTESIAN_POINT ( 'NONE',  ( -4.331206988713679706, 14.81988455483894818, -0.2449743573670525865 ) ) ;
#687 = CIRCLE ( 'NONE', #385, 15.00000000000000355 ) ;
#688 = CARTESIAN_POINT ( 'NONE',  ( 0.000000000000000000, 0.000000000000000000, -25.03750572909317285 ) ) ;
#689 = PERSON_AND_ORGANIZATION ( #941, #292 ) ;
#690 = ORIENTED_EDGE ( 'NONE', *, *, #1009, .T. ) ;
#691 = CARTESIAN_POINT ( 'NONE',  ( 0.000000000000000000, 0.000000000000000000, -18.00000000000000000 ) ) ;
#692 = ADVANCED_FACE ( 'NONE', ( #123 ), #6, .T. ) ;
#693 = CARTESIAN_POINT ( 'NONE',  ( -14.99999999999999822, -5.807457610949213311, -0.6186109231057537183 ) ) ;
#694 = ADVANCED_FACE ( 'NONE', ( #912 ), #26, .T. ) ;
#695 = EDGE_LOOP ( 'NONE', ( #300, #714, #376 ) ) ;
#696 = CC_DESIGN_PERSON_AND_ORGANIZATION_ASSIGNMENT ( #17, #559, ( #27 ) ) ;
#697 = CARTESIAN_POINT ( 'NONE',  ( 0.000000000000000000, 0.000000000000000000, -18.00000000000000000 ) ) ;
#698 = EDGE_CURVE ( 'NONE', #409, #492, #109, .T. ) ;
#699 = VECTOR ( 'NONE', #740, 1000.000000000000000 ) ;
#700 = ORIENTED_EDGE ( 'NONE', *, *, #333, .T. ) ;
#701 = UNCERTAINTY_MEASURE_WITH_UNIT (LENGTH_MEASURE( 1.000000000000000082E-05 ), #314, 'distance_accuracy_value', 'NONE');
#702 = FACE_OUTER_BOUND ( 'NONE', #622, .T. ) ;
#703 = LOCAL_TIME ( 14, 31, 46.00000000000000000, #188 ) ;
#704 = CIRCLE ( 'NONE', #196, 15.00000000000000355 ) ;
#705 = VERTEX_POINT ( 'NONE', #511 ) ;
#706 = CARTESIAN_POINT ( 'NONE',  ( 0.000000000000000000, 0.000000000000000000, -17.09934057723785372 ) ) ;
#707 = EDGE_CURVE ( 'NONE', #495, #3, #995, .T. ) ;
#708 = CARTESIAN_POINT ( 'NONE',  ( -15.00000000000000178, -1.463440508679563878, -18.00000000000000711 ) ) ;
#709 = ORIENTED_EDGE ( 'NONE', *, *, #798, .T. ) ;
#710 = FACE_OUTER_BOUND ( 'NONE', #93, .T. ) ;
#711 = EDGE_CURVE ( 'NONE', #271, #492, #496, .T. ) ;
#712 = PRODUCT_DEFINITION ( 'UNKNOWN', '', #913, #377 ) ;
#713 = CARTESIAN_POINT ( 'NONE',  ( -15.00000000000000000, -5.086199619605006106, -17.52447153105984867 ) ) ;
#714 = ORIENTED_EDGE ( 'NONE', *, *, #119, .F. ) ;
#715 = DIRECTION ( 'NONE',  ( 1.000000000000000000, 0.000000000000000000, 0.000000000000000000 ) ) ;
#716 = AXIS2_PLACEMENT_3D ( 'NONE', #834, #812, #1002 ) ;
#717 = AXIS2_PLACEMENT_3D ( 'NONE', #70, #392, #966 ) ;
#718 = LINE ( 'NONE', #637, #842 ) ;
#719 = CARTESIAN_POINT ( 'NONE',  ( 0.000000000000000000, 0.000000000000000000, -0.8752594227621410816 ) ) ;
#720 = ORIENTED_EDGE ( 'NONE', *, *, #118, .T. ) ;
#721 = APPROVAL_PERSON_ORGANIZATION ( #973, #489, #895 ) ;
#722 = CARTESIAN_POINT ( 'NONE',  ( -2.457886228459780220, 15.90144680005005640, -17.40496726926195947 ) ) ;
#723 = CARTESIAN_POINT ( 'NONE',  ( -15.00000000000000178, 1.466655175406210709, -0.03111425932505382935 ) ) ;
#724 = PERSON_AND_ORGANIZATION ( #941, #292 ) ;
#725 = CARTESIAN_POINT ( 'NONE',  ( 0.000000000000000000, 0.000000000000000000, 0.000000000000000000 ) ) ;
#726 = CARTESIAN_POINT ( 'NONE',  ( 15.00000000000000355, 0.000000000000000000, 0.000000000000000000 ) ) ;
#727 = COORDINATED_UNIVERSAL_TIME_OFFSET ( 1, 0, .AHEAD. ) ;
#728 = EDGE_CURVE ( 'NONE', #617, #867, #943, .T. ) ;
#729 = ORIENTED_EDGE ( 'NONE', *, *, #884, .T. ) ;
#730 = AXIS2_PLACEMENT_3D ( 'NONE', #526, #835, #661 ) ;
#731 = CARTESIAN_POINT ( 'NONE',  ( -10.00000000000000355, 0.000000000000000000, -17.97459999999999525 ) ) ;
#732 = ORIENTED_EDGE ( 'NONE', *, *, #488, .F. ) ;
#733 = CARTESIAN_POINT ( 'NONE',  ( 0.000000000000000000, 0.000000000000000000, 0.000000000000000000 ) ) ;
#734 = CONICAL_SURFACE ( 'NONE', #296, 10.00000000000000355, 0.9599310885968781459 ) ;
#735 = DIRECTION ( 'NONE',  ( 1.000000000000000000, 0.000000000000000000, 0.000000000000000000 ) ) ;
#736 = CARTESIAN_POINT ( 'NONE',  ( 13.77309813124372617, -9.368606162040098440, -17.06922132743003928 ) ) ;
#737 = CARTESIAN_POINT ( 'NONE',  ( 10.00000000000000355, 1.224646799147353651E-15, -17.97459999999999525 ) ) ;
#738 = APPROVAL_STATUS ( 'not_yet_approved' ) ;
#739 = DIRECTION ( 'NONE',  ( 0.8191520442889900222, 0.000000000000000000, 0.5735764363510486019 ) ) ;
#740 = DIRECTION ( 'NONE',  ( 0.000000000000000000, 0.000000000000000000, 1.000000000000000000 ) ) ;
#741 = CARTESIAN_POINT ( 'NONE',  ( -15.00000000000000355, 0.000000000000000000, 0.000000000000000000 ) ) ;
#742 = B_SPLINE_CURVE_WITH_KNOTS ( 'NONE', 3,
 ( #14, #334, #945, #476, #627, #883 ),
 .UNSPECIFIED., .F., .F.,
 ( 4, 2, 4 ),
 ( 2.380728851840798439E-07, 0.004381617344479412854, 0.008762996616073640346 ),
 .UNSPECIFIED. ) ;
#743 = DIRECTION ( 'NONE',  ( -1.000000000000000000, 0.000000000000000000, 0.000000000000000000 ) ) ;
#744 = DATE_AND_TIME ( #860, #964 ) ;
#745 = CARTESIAN_POINT ( 'NONE',  ( 15.00000000000000178, -5.807457610949215088, -0.6186109231057537183 ) ) ;
#746 = CARTESIAN_POINT ( 'NONE',  ( 8.775855298491732626, 12.25376565673536966, -0.03166655019041739877 ) ) ;
#747 = CC_DESIGN_SECURITY_CLASSIFICATION ( #752, ( #913 ) ) ;
#748 = DIRECTION ( 'NONE',  ( 0.000000000000000000, 0.000000000000000000, -1.000000000000000000 ) ) ;
#749 = CARTESIAN_POINT ( 'NONE',  ( -15.00000000000000178, 0.7321549951477563933, -18.00000000000000355 ) ) ;
#750 = COORDINATED_UNIVERSAL_TIME_OFFSET ( 1, 0, .AHEAD. ) ;
#751 = ORIENTED_EDGE ( 'NONE', *, *, #811, .F. ) ;
#752 = SECURITY_CLASSIFICATION ( '', '', #1028 ) ;
#753 = VECTOR ( 'NONE', #473, 1000.000000000000000 ) ;
#754 = CARTESIAN_POINT ( 'NONE',  ( -8.136499645499457145, -12.62289781509839415, -4.600659453011730714E-15 ) ) ;
#755 = CARTESIAN_POINT ( 'NONE',  ( 0.000000000000000000, 0.000000000000000000, 0.000000000000000000 ) ) ;
#756 = DIRECTION ( 'NONE',  ( 0.000000000000000000, 0.000000000000000000, 1.000000000000000000 ) ) ;
#757 = CARTESIAN_POINT ( 'NONE',  ( 15.00000000000000000, 8.660254037844374864, -18.00000000000000000 ) ) ;
#758 = PERSON_AND_ORGANIZATION_ROLE ( 'creator' ) ;
#759 = ORIENTED_EDGE ( 'NONE', *, *, #962, .T. ) ;
#760 = DIRECTION ( 'NONE',  ( -0.000000000000000000, 0.000000000000000000, -1.000000000000000000 ) ) ;
#761 = CARTESIAN_POINT ( 'NONE',  ( 15.00000000000000000, 8.660254037844374864, -18.00000000000000000 ) ) ;
#762 = B_SPLINE_CURVE_WITH_KNOTS ( 'NONE', 3,
 ( #238, #736, #984, #1053, #335, #250 ),
 .UNSPECIFIED., .F., .F.,
 ( 4, 2, 4 ),
 ( 2.380728851842340039E-07, 0.004381617344479411987, 0.008762996616073638612 ),
 .UNSPECIFIED. ) ;
#763 = LINE ( 'NONE', #194, #310 ) ;
#764 = DATE_AND_TIME ( #586, #800 ) ;
#765 = ORIENTED_EDGE ( 'NONE', *, *, #546, .T. ) ;
#766 = CARTESIAN_POINT ( 'NONE',  ( -8.624999999999998224, 1.056257864264591836E-15, -0.9627853650383578765 ) ) ;
#767 = LOCAL_TIME ( 14, 31, 46.00000000000000000, #201 ) ;
#768 = PLANE ( 'NONE',  #876 ) ;
#769 = AXIS2_PLACEMENT_3D ( 'NONE', #983, #249, #735 ) ;
#770 = DATE_AND_TIME ( #275, #703 ) ;
#771 = EDGE_LOOP ( 'NONE', ( #295, #565, #148, #8, #157, #903 ) ) ;
#772 = ADVANCED_FACE ( 'NONE', ( #37 ), #536, .T. ) ;
#773 = AXIS2_PLACEMENT_3D ( 'NONE', #845, #132, #591 ) ;
#774 = CARTESIAN_POINT ( 'NONE',  ( -13.77309813124371018, 9.368606162040077123, -17.06922132743005704 ) ) ;
#775 = EDGE_CURVE ( 'NONE', #257, #516, #420, .T. ) ;
#776 = CARTESIAN_POINT ( 'NONE',  ( -15.00000000000000000, -7.955993959308928609, -1.136443589194640502 ) ) ;
#777 = ORIENTED_EDGE ( 'NONE', *, *, #46, .F. ) ;
#778 = CARTESIAN_POINT ( 'NONE',  ( -13.77616219541670972, -9.366837123765012763, -17.06819997270559952 ) ) ;
#779 = ORIENTED_EDGE ( 'NONE', *, *, #1020, .F. ) ;
#780 = CARTESIAN_POINT ( 'NONE',  ( 4.336808689942017736E-15, 17.32050807568878525, -1.339745962155625802 ) ) ;
#781 = CARTESIAN_POINT ( 'NONE',  ( 15.00000000000000178, 1.466655175406220257, -0.03111425932505420058 ) ) ;
#782 = ORIENTED_EDGE ( 'NONE', *, *, #503, .T. ) ;
#783 = CARTESIAN_POINT ( 'NONE',  ( -8.777777399657015422, 12.25265593111018880, 9.991600645811726800E-15 ) ) ;
#784 = CARTESIAN_POINT ( 'NONE',  ( 15.00000000000000000, -1.463440508679562102, -18.00000000000000355 ) ) ;
#785 = CARTESIAN_POINT ( 'NONE',  ( 2.462765400572097807, 15.89862980871758680, -0.5938504749947003392 ) ) ;
#786 = AXIS2_PLACEMENT_3D ( 'NONE', #280, #521, #1021 ) ;
#787 = EDGE_CURVE ( 'NONE', #373, #307, #256, .T. ) ;
#788 = AXIS2_PLACEMENT_3D ( 'NONE', #75, #395, #478 ) ;
#789 = EDGE_CURVE ( 'NONE', #184, #672, #584, .T. ) ;
#790 = EDGE_LOOP ( 'NONE', ( #700, #558, #152 ) ) ;
#791 = CARTESIAN_POINT ( 'NONE',  ( -15.00000000000000000, 8.660254037844413944, -16.66025403784437131 ) ) ;
#792 = VERTEX_POINT ( 'NONE', #143 ) ;
#793 = DIRECTION ( 'NONE',  ( 1.000000000000000000, 0.000000000000000000, 0.000000000000000000 ) ) ;
#794 = CARTESIAN_POINT ( 'NONE',  ( 15.00000000000000178, 3.671711945059629389, -17.75333118883270700 ) ) ;
#795 = EDGE_LOOP ( 'NONE', ( #289, #709, #458, #1035 ) ) ;
#796 = CARTESIAN_POINT ( 'NONE',  ( 15.00000000000000000, -7.245265331205984261, -17.05020182315362831 ) ) ;
#797 = VECTOR ( 'NONE', #739, 1000.000000000000000 ) ;
#798 = EDGE_CURVE ( 'NONE', #257, #486, #616, .T. ) ;
#799 = CARTESIAN_POINT ( 'NONE',  ( 0.000000000000000000, 0.000000000000000000, 0.000000000000000000 ) ) ;
#800 = LOCAL_TIME ( 14, 31, 46.00000000000000000, #270 ) ;
#801 = CYLINDRICAL_SURFACE ( 'NONE', #802, 10.00000000000000178 ) ;
#802 = AXIS2_PLACEMENT_3D ( 'NONE', #81, #405, #978 ) ;
#803 = CC_DESIGN_PERSON_AND_ORGANIZATION_ASSIGNMENT ( #318, #13, ( #924 ) ) ;
#804 = APPROVAL_PERSON_ORGANIZATION ( #677, #48, #195 ) ;
#805 = DIRECTION ( 'NONE',  ( -1.000000000000000000, 0.000000000000000000, 0.000000000000000000 ) ) ;
#806 = EDGE_CURVE ( 'NONE', #547, #678, #72, .T. ) ;
#807 = FACE_OUTER_BOUND ( 'NONE', #855, .T. ) ;
#808 = ORIENTED_EDGE ( 'NONE', *, *, #149, .T. ) ;
#809 = CARTESIAN_POINT ( 'NONE',  ( 7.500000000000014211, -12.99038105676657651, 0.000000000000000000 ) ) ;
#810 = EDGE_LOOP ( 'NONE', ( #142, #168 ) ) ;
#811 = EDGE_CURVE ( 'NONE', #440, #409, #346, .T. ) ;
#812 = DIRECTION ( 'NONE',  ( 0.000000000000000000, 0.000000000000000000, -1.000000000000000000 ) ) ;
#813 = AXIS2_PLACEMENT_3D ( 'NONE', #841, #191, #272 ) ;
#814 = CARTESIAN_POINT ( 'NONE',  ( -10.00000000000000178, 1.224646799147353454E-15, -25.03750572909317285 ) ) ;
#815 = CARTESIAN_POINT ( 'NONE',  ( -4.857225732735059864E-14, -17.32050807568878525, -1.339745962155625802 ) ) ;
#816 = DIRECTION ( 'NONE',  ( 1.000000000000000000, 0.000000000000000000, 0.000000000000000000 ) ) ;
#817 = CC_DESIGN_PERSON_AND_ORGANIZATION_ASSIGNMENT ( #927, #51, ( #752 ) ) ;
#818 = AXIS2_PLACEMENT_3D ( 'NONE', #193, #44, #857 ) ;
#819 = ORIENTED_EDGE ( 'NONE', *, *, #854, .F. ) ;
#820 = CARTESIAN_POINT ( 'NONE',  ( 0.000000000000000000, 0.000000000000000000, 0.000000000000000000 ) ) ;
#821 = CARTESIAN_POINT ( 'NONE',  ( 4.960329200286743401, 14.45666067663406373, -17.87231511594119837 ) ) ;
#822 = APPROVAL_PERSON_ORGANIZATION ( #508, #1026, #205 ) ;
#823 = ORIENTED_EDGE ( 'NONE', *, *, #999, .F. ) ;
#824 = CALENDAR_DATE ( 2026, 1, 5 ) ;
#825 = VERTEX_POINT ( 'NONE', #103 ) ;
#826 = CARTESIAN_POINT ( 'NONE',  ( 15.00000000000000533, -8.660254037844408614, -1.339745962155625802 ) ) ;
#827 = CARTESIAN_POINT ( 'NONE',  ( -1.226901868756323788, -16.61215595149309365, -17.06922132743004639 ) ) ;
#828 = CARTESIAN_POINT ( 'NONE',  ( 7.500000000000019540, 12.99038105676657118, 0.000000000000000000 ) ) ;
#829 = CARTESIAN_POINT ( 'NONE',  ( -15.00000000000000355, 0.000000000000000000, 0.000000000000000000 ) ) ;
#830 = APPROVAL_DATE_TIME ( #764, #603 ) ;
#831 = ORIENTED_EDGE ( 'NONE', *, *, #46, .T. ) ;
#832 = PRODUCT_DEFINITION_SHAPE ( 'NONE', 'NONE',  #27 ) ;
#833 = ADVANCED_BREP_SHAPE_REPRESENTATION ( '', ( #929, #717 ), #644 ) ;
#834 = CARTESIAN_POINT ( 'NONE',  ( 0.000000000000000000, 0.000000000000000000, 0.000000000000000000 ) ) ;
#835 = DIRECTION ( 'NONE',  ( -0.000000000000000000, -0.000000000000000000, 1.000000000000000000 ) ) ;
#836 = CARTESIAN_POINT ( 'NONE',  ( -15.00000000000000000, 8.660254037844376640, -18.00000000000000000 ) ) ;
#837 = DIRECTION ( 'NONE',  ( -1.000000000000000000, 0.000000000000000000, 0.000000000000000000 ) ) ;
#838 = APPROVAL_ROLE ( '' ) ;
#839 = ORIENTED_EDGE ( 'NONE', *, *, #882, .T. ) ;
#840 = AXIS2_PLACEMENT_3D ( 'NONE', #889, #160, #479 ) ;
#841 = CARTESIAN_POINT ( 'NONE',  ( 0.000000000000000000, 0.000000000000000000, 0.000000000000000000 ) ) ;
#842 = VECTOR ( 'NONE', #967, 1000.000000000000000 ) ;
#843 = DIRECTION ( 'NONE',  ( -1.000000000000000000, 0.000000000000000000, 0.000000000000000000 ) ) ;
#844 = CC_DESIGN_APPROVAL ( #489, ( #924 ) ) ;
#845 = CARTESIAN_POINT ( 'NONE',  ( 0.000000000000000000, 0.000000000000000000, -18.00000000000000000 ) ) ;
#846 = EDGE_CURVE ( 'NONE', #282, #678, #974, .T. ) ;
#847 = APPLICATION_PROTOCOL_DEFINITION ( 'international standard', 'config_control_design', 1994, #992 ) ;
#848 = ORIENTED_EDGE ( 'NONE', *, *, #711, .F. ) ;
#849 = DIRECTION ( 'NONE',  ( -0.8191520442889900222, 1.003171929053522528E-16, 0.5735764363510486019 ) ) ;
#850 = DIRECTION ( 'NONE',  ( -1.000000000000000000, 0.000000000000000000, 0.000000000000000000 ) ) ;
#851 = B_SPLINE_CURVE_WITH_KNOTS ( 'NONE', 3,
 ( #456, #948, #875, #1046, #545, #956, #778, #1033 ),
 .UNSPECIFIED., .F., .F.,
 ( 4, 2, 2, 4 ),
 ( 0.008762996616073702796, 0.01094549440787758419, 0.01312799219968146386, 0.01749298778328922666 ),
 .UNSPECIFIED. ) ;
#852 = CARTESIAN_POINT ( 'NONE',  ( -15.00000000000000000, 1.466655175406220479, -17.96888574067494915 ) ) ;
#853 = ITEM_DEFINED_TRANSFORMATION ( 'NONE', 'NONE', #1018,  #717 ) ;
#854 = EDGE_CURVE ( 'NONE', #307, #409, #457, .T. ) ;
#855 = EDGE_LOOP ( 'NONE', ( #223, #207, #1023, #720 ) ) ;
#856 = ORGANIZATION ( 'NAUO-ORG1', 'UNSPECIFIED', 'UNSPECIFIED' ) ;
#857 = DIRECTION ( 'NONE',  ( 1.000000000000000000, 0.000000000000000000, 0.000000000000000000 ) ) ;
#858 = AXIS2_PLACEMENT_3D ( 'NONE', #755, #760, #348 ) ;
#859 = CARTESIAN_POINT ( 'NONE',  ( 10.00000000000000355, 1.224646799147353651E-15, -17.97459999999999525 ) ) ;
#860 = CALENDAR_DATE ( 2026, 1, 5 ) ;
#861 = ORIENTED_EDGE ( 'NONE', *, *, #846, .F. ) ;
#862 = CONICAL_SURFACE ( 'NONE', #619, 15.00000000000000355, 1.047197551196595855 ) ;
#863 = DIRECTION ( 'NONE',  ( -1.000000000000000000, 0.000000000000000000, 0.000000000000000000 ) ) ;
#864 = CC_DESIGN_SECURITY_CLASSIFICATION ( #924, ( #560 ) ) ;
#865 = VERTEX_POINT ( 'NONE', #108 ) ;
#866 = LINE ( 'NONE', #151, #518 ) ;
#867 = VERTEX_POINT ( 'NONE', #996 ) ;
#868 = CARTESIAN_POINT ( 'NONE',  ( -12.53723459942792040, 10.08213230481557154, -0.5938504749946962313 ) ) ;
#869 = DIRECTION ( 'NONE',  ( -1.000000000000000000, 0.000000000000000000, 0.000000000000000000 ) ) ;
#870 = CARTESIAN_POINT ( 'NONE',  ( 4.336808689942017736E-15, 17.32050807568878525, -16.66025403784437131 ) ) ;
#871 = ADVANCED_FACE ( 'NONE', ( #254 ), #325, .T. ) ;
#872 = AXIS2_PLACEMENT_3D ( 'NONE', #463, #471, #389 ) ;
#873 = EDGE_LOOP ( 'NONE', ( #197, #839, #339, #690 ) ) ;
#874 =( NAMED_UNIT ( * ) PLANE_ANGLE_UNIT ( ) SI_UNIT ( $, .RADIAN. ) );
#875 = CARTESIAN_POINT ( 'NONE',  ( -8.775855298491739731, -12.25376565673539098, -17.96833344980957037 ) ) ;
#876 = AXIS2_PLACEMENT_3D ( 'NONE', #110, #50, #369 ) ;
#877 = ORIENTED_EDGE ( 'NONE', *, *, #20, .T. ) ;
#878 = CARTESIAN_POINT ( 'NONE',  ( 0.000000000000000000, 0.000000000000000000, 0.000000000000000000 ) ) ;
#879 = CARTESIAN_POINT ( 'NONE',  ( -1.226901868756323788, -16.61215595149309365, -0.9307786725699561670 ) ) ;
#880 = CARTESIAN_POINT ( 'NONE',  ( 2.437283619154643810E-15, 17.32050807568878525, -18.00000000000000000 ) ) ;
#881 = EDGE_LOOP ( 'NONE', ( #782, #1008, #877, #907, #220, #240 ) ) ;
#882 = EDGE_CURVE ( 'NONE', #705, #516, #77, .T. ) ;
#883 = CARTESIAN_POINT ( 'NONE',  ( 7.500000000000014211, -12.99038105676657651, 0.000000000000000000 ) ) ;
#884 = EDGE_CURVE ( 'NONE', #87, #617, #1036, .T. ) ;
#885 = B_SPLINE_CURVE_WITH_KNOTS ( 'NONE', 3,
 ( #417, #568, #723, #16, #658, #990, #501, #85 ),
 .UNSPECIFIED., .F., .F.,
 ( 4, 2, 2, 4 ),
 ( 0.02421212571992734097, 0.02640370064518844304, 0.02859527557044954510, 0.03297842542097174923 ),
 .UNSPECIFIED. ) ;
#886 = CARTESIAN_POINT ( 'NONE',  ( 0.000000000000000000, 0.000000000000000000, -17.09934057723785372 ) ) ;
#887 = PERSON ( 'NAUO-PER1', 'UNSPECIFIED', 'UNSPECIFIED', ('UNSPECIFIED'), ('UNSPECIFIED'), ('UNSPECIFIED') ) ;
#888 = APPROVAL ( #738, 'UNSPECIFIED' ) ;
#889 = CARTESIAN_POINT ( 'NONE',  ( -15.00000000000000000, -8.660254037844406838, -18.00000000000000000 ) ) ;
#890 = LOCAL_TIME ( 14, 31, 46.00000000000000000, #410 ) ;
#891 = ADVANCED_FACE ( 'NONE', ( #431 ), #464, .T. ) ;
#892 = DIRECTION ( 'NONE',  ( 0.000000000000000000, -0.000000000000000000, 1.000000000000000000 ) ) ;
#893 = AXIS2_PLACEMENT_3D ( 'NONE', #1030, #290, #942 ) ;
#894 = ORIENTED_EDGE ( 'NONE', *, *, #854, .T. ) ;
#895 = APPROVAL_ROLE ( '' ) ;
#896 = DIRECTION ( 'NONE',  ( -1.000000000000000000, 0.000000000000000000, 0.000000000000000000 ) ) ;
#897 = ORIENTED_EDGE ( 'NONE', *, *, #679, .F. ) ;
#898 = DIRECTION ( 'NONE',  ( -0.000000000000000000, -0.000000000000000000, 1.000000000000000000 ) ) ;
#899 = CARTESIAN_POINT ( 'NONE',  ( -10.00000000000000355, 0.000000000000000000, -17.97459999999999525 ) ) ;
#900 = ADVANCED_FACE ( 'NONE', ( #666 ), #130, .T. ) ;
#901 = CC_DESIGN_PERSON_AND_ORGANIZATION_ASSIGNMENT ( #25, #758, ( #712 ) ) ;
#902 = ORIENTED_EDGE ( 'NONE', *, *, #1020, .T. ) ;
#903 = ORIENTED_EDGE ( 'NONE', *, *, #333, .F. ) ;
#904 = CARTESIAN_POINT ( 'NONE',  ( 15.00000000000000355, 0.000000000000000000, 0.000000000000000000 ) ) ;
#905 = AXIS2_PLACEMENT_3D ( 'NONE', #305, #959, #715 ) ;
#906 = FACE_OUTER_BOUND ( 'NONE', #550, .T. ) ;
#907 = ORIENTED_EDGE ( 'NONE', *, *, #216, .F. ) ;
#908 = CC_DESIGN_SECURITY_CLASSIFICATION ( #634, ( #1055 ) ) ;
#909 = PERSON_AND_ORGANIZATION ( #941, #292 ) ;
#910 = AXIS2_PLACEMENT_3D ( 'NONE', #697, #1043, #222 ) ;
#911 = CARTESIAN_POINT ( 'NONE',  ( 8.775855298491732626, 12.25376565673536966, -17.96833344980957747 ) ) ;
#912 = FACE_OUTER_BOUND ( 'NONE', #613, .T. ) ;
#913 = PRODUCT_DEFINITION_FORMATION_WITH_SPECIFIED_SOURCE ( 'ANY', '', #1004, .NOT_KNOWN. ) ;
#914 = DIRECTION ( 'NONE',  ( 0.000000000000000000, -0.000000000000000000, 1.000000000000000000 ) ) ;
#915 = PERSON_AND_ORGANIZATION ( #941, #292 ) ;
#916 = EDGE_LOOP ( 'NONE', ( #115, #630, #313, #573, #532, #379 ) ) ;
#917 = CARTESIAN_POINT ( 'NONE',  ( 15.00000000000000000, 5.841256279250647943, -17.40113787864092387 ) ) ;
#918 = CARTESIAN_POINT ( 'NONE',  ( -2.457886228459778000, 15.90144680005004929, -0.5950327307380417485 ) ) ;
#919 = FACE_OUTER_BOUND ( 'NONE', #795, .T. ) ;
#920 = DATE_TIME_ROLE ( 'classification_date' ) ;
#921 = ORIENTED_EDGE ( 'NONE', *, *, #811, .T. ) ;
#922 = CARTESIAN_POINT ( 'NONE',  ( 8.136499645499451816, 12.62289781509836928, 9.426206153519478168E-15 ) ) ;
#923 = EDGE_CURVE ( 'NONE', #516, #445, #650, .T. ) ;
#924 = SECURITY_CLASSIFICATION ( '', '', #88 ) ;
#925 = DIRECTION ( 'NONE',  ( -0.000000000000000000, 0.000000000000000000, -1.000000000000000000 ) ) ;
#926 = CARTESIAN_POINT ( 'NONE',  ( 15.00000000000000178, 7.259939241378998709, -0.9355098998108615227 ) ) ;
#927 = PERSON_AND_ORGANIZATION ( #941, #292 ) ;
#928 = ORIENTED_EDGE ( 'NONE', *, *, #615, .F. ) ;
#929 = MANIFOLD_SOLID_BREP ( 'EndChamfer', #279 ) ;
#930 = CIRCLE ( 'NONE', #416, 15.00000000000000355 ) ;
#931 = CARTESIAN_POINT ( 'NONE',  ( -2.462765400572130225, -15.89862980871760101, -17.40614952500529711 ) ) ;
#932 = AXIS2_PLACEMENT_3D ( 'NONE', #886, #656, #255 ) ;
#933 = CARTESIAN_POINT ( 'NONE',  ( -15.00000000000000000, 0.000000000000000000, -18.00000000000000000 ) ) ;
#934 = FACE_BOUND ( 'NONE', #331, .T. ) ;
#935 = APPROVAL_DATE_TIME ( #744, #1026 ) ;
#936 = ORIENTED_EDGE ( 'NONE', *, *, #302, .F. ) ;
#937 = CARTESIAN_POINT ( 'NONE',  ( -14.99999999999999822, -7.245265331205986925, -17.05020182315361410 ) ) ;
#938 = PLANE ( 'NONE',  #977 ) ;
#939 = APPROVAL_DATE_TIME ( #265, #489 ) ;
#940 = ORIENTED_EDGE ( 'NONE', *, *, #99, .F. ) ;
#941 = PERSON ( 'UNSPECIFIED', 'UNSPECIFIED', 'UNSPECIFIED', ('UNSPECIFIED'), ('UNSPECIFIED'), ('UNSPECIFIED') ) ;
#942 = DIRECTION ( 'NONE',  ( 1.000000000000000000, 0.000000000000000000, 0.000000000000000000 ) ) ;
#943 = CIRCLE ( 'NONE', #858, 15.00000000000000355 ) ;
#944 = ORIENTED_EDGE ( 'NONE', *, *, #408, .F. ) ;
#945 = CARTESIAN_POINT ( 'NONE',  ( 12.53723459942792395, -10.08213230481560174, -0.5938504749947084438 ) ) ;
#946 = VECTOR ( 'NONE', #585, 1000.000000000000000 ) ;
#947 = VECTOR ( 'NONE', #30, 1000.000000000000000 ) ;
#948 = CARTESIAN_POINT ( 'NONE',  ( -8.136499645499460698, -12.62289781509839415, -17.99999999999999289 ) ) ;
#949 = ORIENTED_EDGE ( 'NONE', *, *, #472, .T. ) ;
#950 = CARTESIAN_POINT ( 'NONE',  ( 15.00000000000000355, 0.000000000000000000, -18.00000000000000000 ) ) ;
#951 = DESIGN_CONTEXT ( 'detailed design', #552, 'design' ) ;
#952 =( LENGTH_UNIT ( ) NAMED_UNIT ( * ) SI_UNIT ( .MILLI., .METRE. ) );
#953 = CARTESIAN_POINT ( 'NONE',  ( -15.00000000000000000, 0.000000000000000000, -18.00000000000000000 ) ) ;
#954 = ORIENTED_EDGE ( 'NONE', *, *, #728, .T. ) ;
#955 = CYLINDRICAL_SURFACE ( 'NONE', #905, 8.750000000000001776 ) ;
#956 = CARTESIAN_POINT ( 'NONE',  ( -12.54211377154022777, -10.07931531348313570, -17.40496726926195592 ) ) ;
#957 = CIRCLE ( 'NONE', #209, 10.00000000000000000 ) ;
#958 = EDGE_LOOP ( 'NONE', ( #202, #383, #466 ) ) ;
#959 = DIRECTION ( 'NONE',  ( 0.000000000000000000, 0.000000000000000000, 1.000000000000000000 ) ) ;
#960 = CARTESIAN_POINT ( 'NONE',  ( -6.222222600343030763, -13.72810618242298375, -4.767101427147202308E-15 ) ) ;
#961 = CIRCLE ( 'NONE', #786, 10.00000000000000355 ) ;
#962 = EDGE_CURVE ( 'NONE', #543, #445, #957, .T. ) ;
#963 = ORIENTED_EDGE ( 'NONE', *, *, #602, .T. ) ;
#964 = LOCAL_TIME ( 14, 31, 46.00000000000000000, #598 ) ;
#965 = EDGE_CURVE ( 'NONE', #825, #490, #555, .T. ) ;
#966 = DIRECTION ( 'NONE',  ( 1.000000000000000000, 0.000000000000000000, 0.000000000000000000 ) ) ;
#967 = DIRECTION ( 'NONE',  ( 0.000000000000000000, 0.000000000000000000, 1.000000000000000000 ) ) ;
#968 = ORIENTED_EDGE ( 'NONE', *, *, #580, .F. ) ;
#969 = DATE_AND_TIME ( #164, #890 ) ;
#970 = APPLICATION_CONTEXT ( 'configuration controlled 3d designs of mechanical parts and assemblies' ) ;
#971 = FACE_OUTER_BOUND ( 'NONE', #695, .T. ) ;
#972 = ORIENTED_EDGE ( 'NONE', *, *, #707, .T. ) ;
#973 = PERSON_AND_ORGANIZATION ( #941, #292 ) ;
#974 = CIRCLE ( 'NONE', #477, 15.00000000000000355 ) ;
#975 = CARTESIAN_POINT ( 'NONE',  ( 15.00000000000000000, 8.660254037844413944, -1.339745962155625802 ) ) ;
#976 = CC_DESIGN_APPROVAL ( #48, ( #913 ) ) ;
#977 = AXIS2_PLACEMENT_3D ( 'NONE', #757, #39, #204 ) ;
#978 = DIRECTION ( 'NONE',  ( 1.000000000000000000, 0.000000000000000000, 0.000000000000000000 ) ) ;
#979 = CONICAL_SURFACE ( 'NONE', #245, 15.00000000000000355, 1.047197551196595855 ) ;
#980 = APPROVAL_ROLE ( '' ) ;
#981 = ADVANCED_FACE ( 'NONE', ( #474 ), #175, .F. ) ;
#982 = EDGE_CURVE ( 'NONE', #87, #867, #742, .T. ) ;
#983 = CARTESIAN_POINT ( 'NONE',  ( 0.000000000000000000, 0.000000000000000000, -0.9627853650383578765 ) ) ;
#984 = CARTESIAN_POINT ( 'NONE',  ( 12.53723459942792218, -10.08213230481560174, -17.40614952500529355 ) ) ;
#985 = PRODUCT_RELATED_PRODUCT_CATEGORY ( 'detail', '', ( #1004 ) ) ;
#986 = DIRECTION ( 'NONE',  ( 1.000000000000000000, 0.000000000000000000, 0.000000000000000000 ) ) ;
#987 = CARTESIAN_POINT ( 'NONE',  ( 15.00000000000000000, 7.259939241378996932, -17.06449010018913270 ) ) ;
#988 = CARTESIAN_POINT ( 'NONE',  ( -15.00000000000000000, -8.660254037844406838, -18.00000000000000000 ) ) ;
#989 = B_SPLINE_CURVE_WITH_KNOTS ( 'NONE', 3,
 ( #1013, #776, #45, #693, #449, #286, #529, #829 ),
 .UNSPECIFIED., .F., .F.,
 ( 4, 2, 2, 4 ),
 ( 0.01545103129405035920, 0.01764130490051960334, 0.01983157850698884922, 0.02421212571992734097 ),
 .UNSPECIFIED. ) ;
#990 = CARTESIAN_POINT ( 'NONE',  ( -15.00000000000000000, 5.841256279250621297, -0.5988621213590666903 ) ) ;
#991 = DATE_AND_TIME ( #579, #1034 ) ;
#992 = APPLICATION_CONTEXT ( 'configuration controlled 3d designs of mechanical parts and assemblies' ) ;
#993 = ORIENTED_EDGE ( 'NONE', *, *, #470, .T. ) ;
#994 = SHAPE_REPRESENTATION ( 'hex nut style 1 gradeab_din_Hexagon Nut ISO 4032 - M20 - D - N', ( #717 ), #644 ) ;
#995 = CIRCLE ( 'NONE', #107, 10.00000000000000355 ) ;
#996 = CARTESIAN_POINT ( 'NONE',  ( 7.500000000000014211, -12.99038105676657651, 0.000000000000000000 ) ) ;
#997 = CARTESIAN_POINT ( 'NONE',  ( -4.960329200286765605, -14.45666067663408327, -17.87231511594118416 ) ) ;
#998 = CARTESIAN_POINT ( 'NONE',  ( 15.00000000000000000, -8.660254037844408614, -18.00000000000000000 ) ) ;
#999 = EDGE_CURVE ( 'NONE', #361, #440, #239, .T. ) ;
#1000 = PLANE ( 'NONE',  #840 ) ;
#1001 = DATE_AND_TIME ( #531, #330 ) ;
#1002 = DIRECTION ( 'NONE',  ( -1.000000000000000000, 0.000000000000000000, 0.000000000000000000 ) ) ;
#1003 = DIRECTION ( 'NONE',  ( -1.000000000000000000, 0.000000000000000000, 0.000000000000000000 ) ) ;
#1004 = PRODUCT ( 'hex nut style 1 gradeab_din_Hexagon Nut ISO 4032 - M20 - D - N', 'hex nut style 1 gradeab_din_Hexagon Nut ISO 4032 - M20 - D - N', '', ( #439 ) ) ;
#1005 = CARTESIAN_POINT ( 'NONE',  ( 6.863500354500586376, -13.35786429843479617, -17.99999999999999645 ) ) ;
#1006 = CC_DESIGN_PERSON_AND_ORGANIZATION_ASSIGNMENT ( #247, #639, ( #560 ) ) ;
#1007 = APPROVAL_STATUS ( 'not_yet_approved' ) ;
#1008 = ORIENTED_EDGE ( 'NONE', *, *, #119, .T. ) ;
#1009 = EDGE_CURVE ( 'NONE', #445, #543, #380, .T. ) ;
#1010 = CARTESIAN_POINT ( 'NONE',  ( -10.66879301128634161, -11.16087755869423326, -0.2449743573670629948 ) ) ;
#1011 = CARTESIAN_POINT ( 'NONE',  ( -7.500000000000015099, -12.99038105676657473, -18.00000000000000000 ) ) ;
#1012 = DIRECTION ( 'NONE',  ( -0.000000000000000000, -0.000000000000000000, 1.000000000000000000 ) ) ;
#1013 = CARTESIAN_POINT ( 'NONE',  ( -15.00000000000000000, -8.660254037844413944, -1.339745962155625802 ) ) ;
#1014 = B_SPLINE_CURVE_WITH_KNOTS ( 'NONE', 3,
 ( #791, #774, #54, #553, #299, #628 ),
 .UNSPECIFIED., .F., .F.,
 ( 4, 2, 4 ),
 ( 2.380728852047491154E-07, 0.004381617344479427599, 0.008762996616073650755 ),
 .UNSPECIFIED. ) ;
#1015 = PERSON_AND_ORGANIZATION ( #941, #292 ) ;
#1016 = ORIENTED_EDGE ( 'NONE', *, *, #999, .T. ) ;
#1017 = CARTESIAN_POINT ( 'NONE',  ( 13.77616219541670084, 9.366837123764989670, -0.9318000272943885998 ) ) ;
#1018 = AXIS2_PLACEMENT_3D ( 'NONE', #237, #338, #169 ) ;
#1019 = CARTESIAN_POINT ( 'NONE',  ( 4.331206988713675266, -14.81988455483898015, -17.75502564263292271 ) ) ;
#1020 = EDGE_CURVE ( 'NONE', #643, #440, #217, .T. ) ;
#1021 = DIRECTION ( 'NONE',  ( 1.000000000000000000, 0.000000000000000000, 0.000000000000000000 ) ) ;
#1022 = CALENDAR_DATE ( 2026, 1, 5 ) ;
#1023 = ORIENTED_EDGE ( 'NONE', *, *, #288, .T. ) ;
#1024 = VECTOR ( 'NONE', #311, 1000.000000000000000 ) ;
#1025 = CARTESIAN_POINT ( 'NONE',  ( 12.54211377154021534, 10.07931531348310727, -0.5950327307380324227 ) ) ;
#1026 = APPROVAL ( #113, 'UNSPECIFIED' ) ;
#1027 = CARTESIAN_POINT ( 'NONE',  ( -15.00000000000000000, -8.660254037844413944, -16.66025403784437131 ) ) ;
#1028 = SECURITY_CLASSIFICATION_LEVEL ( 'unclassified' ) ;
#1029 = VERTEX_POINT ( 'NONE', #308 ) ;
#1030 = CARTESIAN_POINT ( 'NONE',  ( 0.000000000000000000, 0.000000000000000000, -0.8752594227621410816 ) ) ;
#1031 = CARTESIAN_POINT ( 'NONE',  ( -5.007715329123875599E-16, -17.32050807568881368, -18.00000000000000000 ) ) ;
#1032 = ORIENTED_EDGE ( 'NONE', *, *, #698, .T. ) ;
#1033 = CARTESIAN_POINT ( 'NONE',  ( -15.00000000000000000, -8.660254037844413944, -16.66025403784437131 ) ) ;
#1034 = LOCAL_TIME ( 14, 31, 46.00000000000000000, #727 ) ;
#1035 = ORIENTED_EDGE ( 'NONE', *, *, #118, .F. ) ;
#1036 = B_SPLINE_CURVE_WITH_KNOTS ( 'NONE', 3,
 ( #826, #498, #423, #745, #574, #9, #347, #904 ),
 .UNSPECIFIED., .F., .F.,
 ( 4, 2, 2, 4 ),
 ( 0.01545103129405036614, 0.01764130490051961375, 0.01983157850698885616, 0.02421212571992734791 ),
 .UNSPECIFIED. ) ;
#1037 = AXIS2_PLACEMENT_3D ( 'NONE', #527, #748, #273 ) ;
#1038 = AXIS2_PLACEMENT_3D ( 'NONE', #1049, #892, #567 ) ;
#1039 = CARTESIAN_POINT ( 'NONE',  ( 0.000000000000000000, 0.000000000000000000, -18.00000000000000000 ) ) ;
#1040 = EDGE_LOOP ( 'NONE', ( #894, #751, #808 ) ) ;
#1041 = CARTESIAN_POINT ( 'NONE',  ( -15.00000000000000000, 8.660254037844376640, -1.339745962155614700 ) ) ;
#1042 = ADVANCED_FACE ( 'NONE', ( #710 ), #955, .F. ) ;
#1043 = DIRECTION ( 'NONE',  ( 0.000000000000000000, -0.000000000000000000, 1.000000000000000000 ) ) ;
#1044 = VERTEX_POINT ( 'NONE', #231 ) ;
#1045 = CARTESIAN_POINT ( 'NONE',  ( 15.00000000000000178, -7.955993959308930386, -16.86355641080535506 ) ) ;
#1046 = CARTESIAN_POINT ( 'NONE',  ( -10.04063388450233241, -11.52354539963690172, -17.84578735108512149 ) ) ;
#1047 =( GEOMETRIC_REPRESENTATION_CONTEXT ( 3 ) GLOBAL_UNCERTAINTY_ASSIGNED_CONTEXT ( ( #701 ) ) GLOBAL_UNIT_ASSIGNED_CONTEXT ( ( #314, #1054, #497 ) ) REPRESENTATION_CONTEXT ( 'NONE', 'WORKASPACE' ) );
#1048 = ORIENTED_EDGE ( 'NONE', *, *, #425, .F. ) ;
#1049 = CARTESIAN_POINT ( 'NONE',  ( 0.000000000000000000, 0.000000000000000000, -18.00000000000000000 ) ) ;
#1050 = EDGE_LOOP ( 'NONE', ( #646, #540, #134 ) ) ;
#1051 = CALENDAR_DATE ( 2026, 1, 5 ) ;
#1052 = B_SPLINE_CURVE_WITH_KNOTS ( 'NONE', 3,
 ( #513, #1005, #533, #117, #1019, #442, #426, #199 ),
 .UNSPECIFIED., .F., .F.,
 ( 4, 2, 2, 4 ),
 ( 0.008762996616073638612, 0.01094549440787754430, 0.01312799219968144825, 0.01749298778328926135 ),
 .UNSPECIFIED. ) ;
#1053 = CARTESIAN_POINT ( 'NONE',  ( 10.03967079971327969, -11.52410143689910882, -17.87231511594118416 ) ) ;
#1054 =( NAMED_UNIT ( * ) PLANE_ANGLE_UNIT ( ) SI_UNIT ( $, .RADIAN. ) );
#1055 = NEXT_ASSEMBLY_USAGE_OCCURRENCE ( 'NAUO1', ' ', ' ', #27, #712, $ ) ;
ENDSEC;
END-ISO-10303-21;
